# Blender v2.79 (sub 0) OBJ File: ''
# www.blender.org
o Plane
v 0.232241 0.000000 0.420748
v 0.314538 1.390991 0.476822
v 0.136178 0.000000 0.200972
v 0.437321 0.000000 0.200972
v -0.422167 0.000000 0.733117
v -0.559571 1.390991 0.592256
v -0.518230 0.000000 0.525182
v -0.217087 0.000000 0.525182
v 0.549342 0.000000 -0.093306
v 0.329497 1.390991 -0.413946
v 0.453279 0.000000 -0.245228
v 0.754421 0.000000 -0.245228
v -0.230824 0.000000 0.281166
v -0.403315 1.056550 0.022517
v -0.421602 0.000000 -0.034864
v -0.025744 0.000000 -0.034864
v 0.020329 0.000000 -0.308751
v 0.132989 1.056550 -0.394646
v 0.025419 0.000000 -0.536507
v 0.225408 0.000000 -0.624781
vt 0.475106 0.476357
vt 0.364684 0.476357
vt 0.472224 0.005519
vt 0.364684 0.959429
vt 0.450517 0.487395
vt 0.450517 0.978066
vt 0.116206 0.488658
vt 0.005906 0.488658
vt 0.065890 0.005519
vt 0.742545 0.487823
vt 0.635388 0.487823
vt 0.740366 0.005519
vt 0.635388 0.976205
vt 0.702085 0.498861
vt 0.719479 0.976205
vt 0.235188 0.497660
vt 0.128017 0.473276
vt 0.235188 0.005519
vt 0.903153 0.016769
vt 0.994094 0.005519
vt 0.994094 0.499739
vt 0.068686 0.499696
vt 0.068686 0.994481
vt 0.005906 0.515577
vt 0.352873 0.497841
vt 0.246999 0.468933
vt 0.352873 0.005519
vt 0.891342 0.377210
vt 0.754356 0.377210
vt 0.855268 0.005519
vt 0.486917 0.764821
vt 0.598005 0.402068
vt 0.620953 0.764821
vt 0.623577 0.391030
vt 0.486917 0.345757
vt 0.623577 0.005519
vt 0.891342 0.746863
vt 0.754356 0.746863
vt 0.833888 0.388248
vt 0.128017 0.872123
vt 0.144037 0.508698
vt 0.204778 0.872123
vt 0.322914 0.875120
vt 0.246999 0.875120
vt 0.272773 0.508880
vn 0.7293 -0.0706 0.6805
vn -0.9156 0.0380 0.4002
vn 0.0000 0.1945 -0.9809
vn 0.7050 0.1400 0.6953
vn -0.9068 -0.0472 0.4189
vn 0.0000 0.0482 -0.9988
vn 0.5733 0.2690 0.7739
vn -0.8452 -0.0104 0.5344
vn 0.0000 -0.1204 -0.9927
vn 0.8098 0.2609 0.5255
vn -0.8560 -0.0132 0.5168
vn 0.0000 0.0542 -0.9985
vn 0.8380 -0.0451 0.5438
vn -0.9943 0.1042 -0.0222
vn -0.3985 0.1618 -0.9028
s off
f 1/1/1 4/2/1 2/3/1
f 1/4/2 2/5/2 3/6/2
f 4/7/3 3/8/3 2/9/3
f 5/10/4 8/11/4 6/12/4
f 5/13/5 6/14/5 7/15/5
f 8/16/6 7/17/6 6/18/6
f 9/19/7 12/20/7 10/21/7
f 9/22/8 10/23/8 11/24/8
f 12/25/9 11/26/9 10/27/9
f 13/28/10 16/29/10 14/30/10
f 13/31/11 14/32/11 15/33/11
f 16/34/12 15/35/12 14/36/12
f 17/37/13 20/38/13 18/39/13
f 17/40/14 18/41/14 19/42/14
f 20/43/15 19/44/15 18/45/15
