# Blender v2.79 (sub 0) OBJ File: ''
# www.blender.org
o Plane.001
v -0.707107 0.000000 -0.707107
v 0.707107 2.000000 0.707107
v 0.707107 -0.000000 0.707107
v -0.707107 2.000000 0.707107
v 0.707107 -0.000000 -0.707107
v 0.707107 2.000000 -0.707107
v -0.707107 2.000000 -0.707107
v -0.707107 0.000000 0.707107
vt 0.000000 0.000000
vt 1.000000 0.000000
vt 1.000000 1.000000
vt 0.000000 0.000000
vt 1.000000 0.000000
vt 1.000000 1.000000
vt 0.000000 1.000000
vt 0.000000 1.000000
vn -0.7071 -0.0000 0.7071
vn 0.7071 -0.0000 0.7071
s 1
f 1/1/1 3/2/1 2/3/1
f 8/4/2 5/5/2 6/6/2
f 1/1/1 2/3/1 7/7/1
f 8/4/2 6/6/2 4/8/2
