# Blender v2.79 (sub 0) OBJ File: 'grass.blend'
# www.blender.org
o Plane.001
v 0.681797 0.000001 0.306047
v 0.792946 0.000001 0.268650
v 0.671760 0.000001 0.208087
v 0.753866 1.440024 0.164275
v -0.195486 0.000001 0.306047
v 0.049627 0.000001 0.268650
v -0.071559 0.000001 0.037787
v -0.182158 1.317139 -0.128184
v 0.292656 0.000001 -0.467739
v 0.451822 0.000001 -0.505137
v 0.330635 0.000001 -0.658123
v 0.582597 1.728050 -0.609511
v -0.536610 0.000001 -0.467739
v -0.291498 0.000001 -0.505137
v -0.412684 0.000001 -0.735999
v -0.362047 1.271945 -0.831667
v -0.877060 0.000001 0.068179
v -0.591974 0.000001 0.042671
v -0.644712 0.000001 -0.200082
v -0.652862 0.883709 0.153431
v 0.671760 0.000001 0.208087
v 0.681797 0.000001 0.306047
v 0.792946 0.000001 0.268650
v 0.753866 1.440024 0.164275
v 0.753866 1.440024 0.164275
v -0.071559 0.000001 0.037787
v -0.195486 0.000001 0.306047
v 0.049627 0.000001 0.268650
v -0.182158 1.317139 -0.128184
v -0.182158 1.317139 -0.128184
v 0.330635 0.000001 -0.658123
v 0.292656 0.000001 -0.467739
v 0.451822 0.000001 -0.505137
v 0.582597 1.728050 -0.609511
v 0.582597 1.728050 -0.609511
v -0.412684 0.000001 -0.735999
v -0.536610 0.000001 -0.467739
v -0.291498 0.000001 -0.505137
v -0.362047 1.271945 -0.831667
v -0.362047 1.271945 -0.831667
v -0.644712 0.000001 -0.200082
v -0.877060 0.000001 0.068179
v -0.591974 0.000001 0.042671
v -0.652862 0.883709 0.153431
v -0.652862 0.883709 0.153431
vt 0.563999 0.971882
vt 0.536709 0.522055
vt 0.563999 0.519910
vt 0.938292 0.480574
vt 0.902796 0.477568
vt 0.938292 0.028118
vt 0.174369 0.512154
vt 0.174369 0.963382
vt 0.141248 0.961153
vt 0.226943 0.455919
vt 0.141248 0.056537
vt 0.226943 0.028118
vt 0.847635 0.452186
vt 0.771707 0.452186
vt 0.820319 0.028118
vt 0.612158 0.028118
vt 0.612158 0.463675
vt 0.536709 0.436909
vt 0.086087 0.576302
vt 0.027581 0.035390
vt 0.086087 0.028118
vt 0.716546 0.576181
vt 0.667319 0.566884
vt 0.716546 0.028118
vt 0.340629 0.028118
vt 0.340629 0.568790
vt 0.282105 0.567765
vt 0.481548 0.444817
vt 0.395791 0.056342
vt 0.481548 0.028118
vt 0.771707 0.509215
vt 0.847631 0.508422
vt 0.847631 0.915132
vt 0.473220 0.501053
vt 0.473220 0.911420
vt 0.395791 0.891375
vt 0.340629 0.625025
vt 0.340629 0.922036
vt 0.245190 0.888230
vt 0.716546 0.909621
vt 0.631385 0.890163
vt 0.716546 0.632416
vt 0.972419 0.828935
vt 0.902796 0.561699
vt 0.972419 0.536809
vn -0.9930 0.0597 0.1017
vn 0.3179 0.0771 0.9450
vn 0.4464 -0.0526 -0.8933
vn -0.9003 -0.1280 -0.4159
vn 0.1435 0.3086 0.9403
vn 0.8853 0.0158 -0.4647
vn -0.9700 0.1469 -0.1935
vn 0.2285 0.0415 0.9727
vn 0.7802 -0.0964 -0.6180
vn -0.9078 0.0046 -0.4194
vn 0.1459 0.2536 0.9562
vn 0.8832 -0.0700 -0.4636
vn -0.7325 0.2470 -0.6344
vn 0.0885 -0.1179 0.9891
vn 0.9729 0.0935 -0.2114
s off
f 24/1/1 21/2/1 22/3/1
f 1/4/2 23/5/2 25/6/2
f 4/7/3 2/8/3 3/9/3
f 29/10/4 26/11/4 27/12/4
f 5/13/5 28/14/5 30/15/5
f 8/16/6 6/17/6 7/18/6
f 34/19/7 31/20/7 32/21/7
f 9/22/8 33/23/8 35/24/8
f 12/25/9 10/26/9 11/27/9
f 39/28/10 36/29/10 37/30/10
f 13/31/11 38/32/11 40/33/11
f 16/34/12 14/35/12 15/36/12
f 44/37/13 41/38/13 42/39/13
f 17/40/14 43/41/14 45/42/14
f 20/43/15 18/44/15 19/45/15
