# Blender v2.79 (sub 0) OBJ File: ''
# www.blender.org
o Plane
v -0.460832 -0.022350 0.087276
v -0.260376 -0.022350 0.087276
v -0.295938 0.837583 0.160622
v -0.460832 -0.022350 -0.066506
v -0.260376 -0.022350 -0.066506
v -0.460832 -0.022350 -0.382183
v -0.260376 -0.022350 -0.382183
v -0.331910 1.335721 -0.319525
v -0.460832 -0.022350 -0.535965
v -0.260376 -0.022350 -0.535965
v 0.616931 -0.022350 -0.256220
v 0.817386 -0.022350 -0.256220
v 0.842943 0.833240 -0.407492
v 0.616931 -0.022350 -0.410002
v 0.817386 -0.022350 -0.410002
v 0.509641 -0.022350 0.541254
v 0.513174 -0.022350 0.417520
v 0.659958 1.034756 0.939656
v 0.414718 -0.022350 0.538544
v 0.418250 -0.022350 0.414810
v 0.100394 -0.022350 0.025397
v 0.227972 -0.022350 -0.028564
v 0.261734 1.340638 -0.067550
v 0.047922 -0.022350 -0.122289
v 0.216311 -0.022350 -0.056135
v -0.295938 0.837583 0.160622
v -0.295938 0.837583 0.160622
v -0.295938 0.837583 0.160622
v -0.460832 -0.022350 0.087276
v -0.260376 -0.022350 0.087276
v -0.460832 -0.022350 -0.066506
v -0.260376 -0.022350 -0.066506
v -0.331910 1.335721 -0.319525
v -0.331910 1.335721 -0.319525
v -0.331910 1.335721 -0.319525
v -0.460832 -0.022350 -0.382183
v -0.260376 -0.022350 -0.382183
v -0.460832 -0.022350 -0.535965
v -0.260376 -0.022350 -0.535965
v 0.842943 0.833240 -0.407492
v 0.842943 0.833240 -0.407492
v 0.842943 0.833240 -0.407492
v 0.616931 -0.022350 -0.256220
v 0.817386 -0.022350 -0.256220
v 0.616931 -0.022350 -0.410002
v 0.817386 -0.022350 -0.410002
v 0.659958 1.034756 0.939656
v 0.659958 1.034756 0.939656
v 0.659958 1.034756 0.939656
v 0.509641 -0.022350 0.541254
v 0.513174 -0.022350 0.417520
v 0.414718 -0.022350 0.538544
v 0.418250 -0.022350 0.414810
v 0.261734 1.340638 -0.067550
v 0.261734 1.340638 -0.067550
v 0.261734 1.340638 -0.067550
v 0.100394 -0.022350 0.025397
v 0.227972 -0.022350 -0.028564
v 0.047922 -0.022350 -0.122289
v 0.216311 -0.022350 -0.056135
vt 0.659469 0.457792
vt 0.659469 0.791211
vt 0.573089 0.732243
vt 0.308406 0.745544
vt 0.219715 0.471003
vt 0.308405 0.412170
vt 0.234833 0.902646
vt 0.219715 0.801201
vt 0.234833 0.798044
vt 0.878803 0.497222
vt 0.863387 0.783586
vt 0.863387 0.496087
vt 0.356205 0.026250
vt 0.356205 0.359669
vt 0.219715 0.240859
vt 0.165404 0.359624
vt 0.027156 0.145105
vt 0.165404 0.026250
vt 0.948473 0.973750
vt 0.933114 0.796819
vt 0.948473 0.795058
vt 0.948509 0.497461
vt 0.933114 0.742557
vt 0.933114 0.496087
vt 0.809076 0.411023
vt 0.734336 0.085526
vt 0.809076 0.026250
vt 0.101177 0.412125
vt 0.101177 0.796682
vt 0.027156 0.737730
vt 0.304611 0.891465
vt 0.289144 0.798083
vt 0.304611 0.798044
vt 0.749783 0.463523
vt 0.749783 0.846742
vt 0.734336 0.464143
vt 0.972844 0.235098
vt 0.960096 0.235098
vt 0.965851 0.026250
vt 0.517422 0.458388
vt 0.517422 0.879571
vt 0.504457 0.462845
vt 0.905785 0.443587
vt 0.863387 0.178710
vt 0.905785 0.026250
vt 0.410516 0.726597
vt 0.450146 0.458388
vt 0.450146 0.879772
vt 0.486980 0.323867
vt 0.410516 0.125077
vt 0.518778 0.026250
vt 0.680025 0.026250
vt 0.680025 0.405292
vt 0.579778 0.289181
vt 0.680025 0.405292
vt 0.573089 0.307546
vt 0.579778 0.289181
vt 0.486980 0.323867
vt 0.518778 0.026250
vt 0.518778 0.405888
vn 0.0000 -0.0850 0.9964
vn 0.0000 0.2554 -0.9668
vn 0.9991 0.0413 0.0000
vn -0.9821 0.1883 0.0000
vn 0.0000 -0.0461 0.9989
vn 0.0000 0.1574 -0.9875
vn 0.9986 0.0526 0.0000
vn -0.9955 0.0945 0.0000
vn 0.0000 0.1741 0.9847
vn 0.0000 0.0029 -1.0000
vn 0.9996 -0.0299 0.0000
vn -0.9668 0.2554 0.0000
vn 0.9881 -0.1511 0.0282
vn -0.9714 0.2359 -0.0277
vn 0.0256 0.4398 -0.8977
vn -0.0267 -0.3492 0.9367
vn 0.3895 0.0167 0.9209
vn 0.3656 -0.0200 -0.9306
vn 0.9205 -0.0339 -0.3893
vn -0.9339 0.1332 0.3318
s off
f 29/1/1 30/2/1 26/3/1
f 31/4/2 27/5/2 32/6/2
f 3/7/3 2/8/3 5/9/3
f 1/10/4 28/11/4 4/12/4
f 36/13/5 37/14/5 33/15/5
f 38/16/6 34/17/6 39/18/6
f 8/19/7 7/20/7 10/21/7
f 6/22/8 35/23/8 9/24/8
f 43/25/9 44/26/9 40/27/9
f 45/28/10 41/29/10 46/30/10
f 13/31/11 12/32/11 15/33/11
f 11/34/12 42/35/12 14/36/12
f 50/37/13 51/38/13 47/39/13
f 52/40/14 48/41/14 53/42/14
f 18/43/15 17/44/15 20/45/15
f 16/46/16 49/47/16 19/48/16
f 57/49/17 58/50/17 54/51/17
f 59/52/18 55/53/18 60/54/18
f 23/55/19 22/56/19 25/57/19
f 21/58/20 56/59/20 24/60/20
