# Blender v2.79 (sub 0) OBJ File: ''
# www.blender.org
o Plane.003
v 1.707117 -0.732148 0.263246
v 0.292903 -0.732148 -1.150967
v 1.707117 1.267852 0.263246
v 0.292904 1.267852 -1.150967
v 1.000010 -0.732148 0.556139
v 1.000010 -0.732148 -1.443861
v 1.000010 1.267852 0.556139
v 1.000010 1.267852 -1.443861
v 0.292903 -0.732148 0.263246
v 1.707117 -0.732148 -1.150967
v 0.292904 1.267852 0.263246
v 1.707117 1.267852 -1.150967
v 0.000010 -0.732148 -0.443861
v 2.000010 -0.732148 -0.443861
v 0.000010 1.267852 -0.443861
v 2.000010 1.267852 -0.443861
vt 0.999900 0.000100
vt 0.000100 0.999900
vt 0.000100 0.000100
vt 0.999900 0.000100
vt 0.000100 0.999900
vt 0.000100 0.000100
vt 0.000100 0.000100
vt 0.999900 0.999900
vt 0.000100 0.999900
vt 0.999900 0.000100
vt 0.000100 0.999900
vt 0.000100 0.000100
vt 0.999900 0.999900
vt 0.999900 0.999900
vt 0.999900 0.000100
vt 0.999900 0.999900
vn 0.7071 -0.0000 -0.7071
vn 1.0000 -0.0000 -0.0000
vn 0.7071 0.0000 0.7071
vn -0.0000 -0.0000 1.0000
s off
f 2/1/1 3/2/1 1/3/1
f 6/4/2 7/5/2 5/6/2
f 9/7/3 12/8/3 11/9/3
f 14/10/4 15/11/4 13/12/4
f 2/1/1 4/13/1 3/2/1
f 6/4/2 8/14/2 7/5/2
f 9/7/3 10/15/3 12/8/3
f 14/10/4 16/16/4 15/11/4
