# Blender v2.79 (sub 0) OBJ File: ''
# www.blender.org
o Plane.001
v 0.000000 0.000000 1.000000
v -0.000000 0.000000 -1.000000
v 0.000000 2.000000 1.000000
v 0.000000 2.000000 -1.000000
v -1.000000 0.000000 -0.000000
v 1.000000 0.000000 -0.000000
v -1.000000 2.000000 0.000000
v 1.000000 2.000000 0.000000
vt 0.499900 0.000100
vt 0.000100 0.499900
vt 0.000100 0.000100
vt 0.499900 0.500100
vt 0.000100 0.999900
vt 0.000100 0.500100
vt 0.499900 0.499900
vt 0.499900 0.999900
vn 1.0000 -0.0000 -0.0000
vn -0.0000 -0.0000 1.0000
s off
f 2/1/1 3/2/1 1/3/1
f 6/4/2 7/5/2 5/6/2
f 2/1/1 4/7/1 3/2/1
f 6/4/2 8/8/2 7/5/2
