# Blender v2.78 (sub 0) OBJ File: 'grass.blend'
# www.blender.org
o Grass_Cube_Cube.001
v -0.301304 0.322094 -0.147150
v -0.293443 0.000000 -0.158548
v -0.293443 0.000000 -0.094896
v -0.190216 0.322094 -0.147150
v -0.120368 0.000000 -0.158548
v -0.293443 0.000000 -0.158548
v -0.190216 0.322094 -0.106294
v -0.120368 0.000000 -0.094896
v -0.120368 0.000000 -0.158548
v -0.190216 0.322094 -0.106294
v -0.301304 0.322094 -0.106294
v -0.293443 0.000000 -0.094896
v -0.293443 0.000000 -0.158548
v -0.120368 0.000000 -0.158548
v -0.120368 0.000000 -0.094896
v -0.086361 0.619808 -0.135751
v -0.135460 0.619808 -0.135751
v -0.135460 0.619808 -0.117693
v -0.135460 0.619808 -0.117693
v -0.301304 0.322094 -0.106294
v -0.190216 0.322094 -0.106294
v -0.086361 0.619808 -0.117693
v -0.190216 0.322094 -0.106294
v -0.190216 0.322094 -0.147150
v -0.135460 0.619808 -0.135751
v -0.086361 0.619808 -0.135751
v -0.190216 0.322094 -0.147150
v -0.135460 0.619808 -0.135751
v -0.301304 0.322094 -0.147150
v -0.301304 0.322094 -0.106294
v 0.133048 0.244384 -0.122011
v 0.141994 -0.000000 -0.147627
v 0.187711 -0.000000 -0.103335
v 0.210346 0.244384 -0.201796
v 0.262424 -0.000000 -0.271931
v 0.141994 -0.000000 -0.147627
v 0.239689 0.244384 -0.173368
v 0.308140 -0.000000 -0.227640
v 0.262424 -0.000000 -0.271931
v 0.239689 0.244384 -0.173368
v 0.162391 0.244384 -0.093583
v 0.187711 -0.000000 -0.103335
v 0.141994 0.000000 -0.147627
v 0.262424 0.000000 -0.271931
v 0.308140 0.000000 -0.227640
v 0.236725 0.619808 -0.212643
v 0.202560 0.619808 -0.177379
v 0.215531 0.619808 -0.164813
v 0.246213 0.410764 -0.188294
v 0.162391 0.244384 -0.093583
v 0.239689 0.244384 -0.173368
v 0.280789 0.410764 -0.266314
v 0.301944 0.410764 -0.245819
v 0.239689 0.244384 -0.173368
v 0.225058 0.410764 -0.208790
v 0.280789 0.410764 -0.266314
v 0.210346 0.244384 -0.201796
v 0.225058 0.410764 -0.208790
v 0.133048 0.244384 -0.122011
v 0.162391 0.244384 -0.093583
v 0.202560 0.619808 -0.177379
v 0.225058 0.410764 -0.208790
v 0.246213 0.410764 -0.188294
v 0.236725 0.619808 -0.212643
v 0.280789 0.410764 -0.266314
v 0.225058 0.410764 -0.208790
v 0.249695 0.619808 -0.200077
v 0.301944 0.410764 -0.245819
v 0.280789 0.410764 -0.266314
v 0.249695 0.619808 -0.200077
v 0.215531 0.619808 -0.164813
v 0.246213 0.410764 -0.188294
v 0.271222 0.184958 0.179801
v 0.170653 -0.000000 0.124848
v 0.145838 -0.000000 0.183465
v 0.271222 0.184958 0.179801
v 0.373521 0.184958 0.223108
v 0.330034 -0.000000 0.192320
v 0.357594 0.184958 0.260731
v 0.305219 -0.000000 0.250937
v 0.330034 -0.000000 0.192320
v 0.255295 0.184959 0.217424
v 0.145838 -0.000000 0.183465
v 0.305219 -0.000000 0.250937
v 0.170653 -0.000000 0.124848
v 0.330034 -0.000000 0.192320
v 0.305219 -0.000000 0.250937
v 0.206533 0.648759 0.164795
v 0.161318 0.648759 0.145653
v 0.154278 0.648759 0.162283
v 0.222418 0.331531 0.197317
v 0.148660 0.331531 0.166093
v 0.255295 0.184959 0.217424
v 0.222418 0.331531 0.197317
v 0.357594 0.184958 0.260731
v 0.373521 0.184958 0.223108
v 0.233901 0.331531 0.170191
v 0.373521 0.184958 0.223108
v 0.271222 0.184958 0.179801
v 0.160144 0.331531 0.138966
v 0.271222 0.184958 0.179801
v 0.255295 0.184959 0.217424
v 0.161318 0.648759 0.145653
v 0.160144 0.331531 0.138966
v 0.148660 0.331531 0.166093
v 0.206533 0.648759 0.164795
v 0.233901 0.331531 0.170191
v 0.160144 0.331531 0.138966
v 0.206533 0.648759 0.164795
v 0.199494 0.648759 0.181424
v 0.222418 0.331531 0.197317
v 0.199494 0.648759 0.181424
v 0.154278 0.648759 0.162283
v 0.148660 0.331531 0.166093
v -0.313910 0.204174 0.211080
v -0.337685 -0.000001 0.204308
v -0.324929 -0.000001 0.266669
v -0.205077 0.204174 0.188817
v -0.168122 -0.000001 0.169622
v -0.337685 -0.000001 0.204308
v -0.196889 0.204174 0.228843
v -0.155365 -0.000001 0.231983
v -0.168122 -0.000001 0.169622
v -0.196889 0.204174 0.228843
v -0.305722 0.204174 0.251106
v -0.324929 -0.000001 0.266669
v -0.337685 -0.000001 0.204308
v -0.168122 -0.000001 0.169622
v -0.155365 -0.000001 0.231983
v -0.238340 0.660016 0.207256
v -0.286444 0.660016 0.217096
v -0.282825 0.660016 0.234787
v -0.378293 0.489066 0.260134
v -0.456761 0.489066 0.276185
v -0.305722 0.204174 0.251106
v -0.378293 0.489066 0.260134
v -0.196889 0.204174 0.228843
v -0.205077 0.204174 0.188817
v -0.384197 0.489066 0.231275
v -0.205077 0.204174 0.188817
v -0.313910 0.204174 0.211080
v -0.462665 0.489066 0.247326
v -0.313910 0.204174 0.211080
v -0.305722 0.204174 0.251106
v -0.286444 0.660016 0.217096
v -0.462665 0.489066 0.247326
v -0.456761 0.489066 0.276185
v -0.286444 0.660016 0.217096
v -0.238340 0.660016 0.207256
v -0.384197 0.489066 0.231275
v -0.234721 0.660016 0.224947
v -0.378293 0.489066 0.260134
v -0.384197 0.489066 0.231275
v -0.282825 0.660016 0.234787
v -0.456761 0.489066 0.276185
v -0.378293 0.489066 0.260134
v -0.159241 0.270668 0.522023
v -0.152734 -0.000000 0.505183
v -0.121178 -0.000000 0.560463
v -0.062765 0.270668 0.466951
v -0.002425 -0.000000 0.419381
v -0.152734 -0.000000 0.505183
v -0.042511 0.270668 0.502432
v 0.029131 -0.000000 0.474661
v -0.002425 -0.000000 0.419381
v -0.042511 0.270668 0.502432
v -0.138987 0.270668 0.557504
v -0.121178 -0.000000 0.560463
v -0.152734 -0.000000 0.505183
v -0.002425 -0.000000 0.419381
v 0.029131 -0.000000 0.474661
v -0.099213 0.648759 0.500882
v -0.141853 0.648759 0.525223
v -0.132902 0.648759 0.540905
v -0.047816 0.474379 0.498897
v -0.138987 0.270668 0.557504
v -0.042511 0.270668 0.502432
v 0.021742 0.474379 0.459191
v -0.042511 0.270668 0.502432
v -0.062765 0.270668 0.466951
v -0.062419 0.474379 0.473316
v 0.007139 0.474379 0.433609
v -0.062765 0.270668 0.466951
v -0.062419 0.474379 0.473316
v -0.159241 0.270668 0.522023
v -0.138987 0.270668 0.557504
v -0.141853 0.648759 0.525223
v -0.062419 0.474379 0.473316
v -0.047816 0.474379 0.498897
v -0.099213 0.648759 0.500882
v 0.007139 0.474379 0.433609
v -0.062419 0.474379 0.473316
v -0.090261 0.648759 0.516564
v 0.021742 0.474379 0.459191
v 0.007139 0.474379 0.433609
v -0.090261 0.648759 0.516564
v -0.132902 0.648759 0.540905
v -0.047816 0.474379 0.498897
v -0.301304 0.322094 -0.106294
v -0.301304 0.322094 -0.147150
v -0.190216 0.322094 -0.147150
v -0.120368 0.000000 -0.094896
v -0.293443 0.000000 -0.094896
v -0.086361 0.619808 -0.117693
v -0.086361 0.619808 -0.117693
v -0.086361 0.619808 -0.135751
v -0.301304 0.322094 -0.147150
v -0.135460 0.619808 -0.117693
v 0.162391 0.244384 -0.093583
v 0.133048 0.244384 -0.122011
v 0.210346 0.244384 -0.201796
v 0.308140 -0.000000 -0.227640
v 0.187711 0.000000 -0.103335
v 0.249695 0.619808 -0.200077
v 0.301944 0.410764 -0.245819
v 0.210346 0.244384 -0.201796
v 0.133048 0.244384 -0.122011
v 0.246213 0.410764 -0.188294
v 0.215531 0.619808 -0.164813
v 0.202560 0.619808 -0.177379
v 0.236725 0.619808 -0.212643
v 0.301944 0.410764 -0.245819
v 0.255295 0.184959 0.217424
v 0.170653 -0.000000 0.124848
v 0.373521 0.184958 0.223108
v 0.357594 0.184958 0.260731
v 0.145838 -0.000000 0.183465
v 0.199494 0.648759 0.181424
v 0.357594 0.184958 0.260731
v 0.233901 0.331531 0.170191
v 0.160144 0.331531 0.138966
v 0.148660 0.331531 0.166093
v 0.154278 0.648759 0.162283
v 0.161318 0.648759 0.145653
v 0.233901 0.331531 0.170191
v 0.222418 0.331531 0.197317
v -0.305722 0.204174 0.251106
v -0.313910 0.204174 0.211080
v -0.205077 0.204174 0.188817
v -0.155365 -0.000001 0.231983
v -0.324929 -0.000001 0.266669
v -0.234721 0.660016 0.224947
v -0.196889 0.204174 0.228843
v -0.384197 0.489066 0.231275
v -0.462665 0.489066 0.247326
v -0.456761 0.489066 0.276185
v -0.282825 0.660016 0.234787
v -0.462665 0.489066 0.247326
v -0.238340 0.660016 0.207256
v -0.234721 0.660016 0.224947
v -0.138987 0.270668 0.557504
v -0.159241 0.270668 0.522023
v -0.062765 0.270668 0.466951
v 0.029131 -0.000000 0.474661
v -0.121178 -0.000000 0.560463
v -0.090261 0.648759 0.516564
v 0.021742 0.474379 0.459191
v 0.007139 0.474379 0.433609
v -0.159241 0.270668 0.522023
v -0.047816 0.474379 0.498897
v -0.132902 0.648759 0.540905
v -0.141853 0.648759 0.525223
v -0.099213 0.648759 0.500882
v 0.021742 0.474379 0.459191
vt 0.6783 0.8647
vt 0.6808 0.9243
vt 0.6670 0.9243
vt 0.6042 0.8224
vt 0.5908 0.7604
vt 0.6282 0.7612
vt 0.5769 0.9182
vt 0.5744 0.8574
vt 0.5882 0.8574
vt 0.5280 0.7609
vt 0.5520 0.7604
vt 0.5520 0.8221
vt 0.5882 0.9527
vt 0.5882 0.9858
vt 0.5744 0.9858
vt 0.6670 0.9682
vt 0.6670 0.9588
vt 0.6709 0.9588
vt 0.6880 0.7650
vt 0.6880 0.8303
vt 0.6670 0.8199
vt 0.7293 0.8185
vt 0.7268 0.7604
vt 0.7357 0.7604
vt 0.5356 0.9227
vt 0.5263 0.9273
vt 0.5146 0.8678
vt 0.7260 0.8647
vt 0.7284 0.9277
vt 0.7196 0.9277
vt 0.9669 0.8044
vt 0.9646 0.7676
vt 0.9775 0.7676
vt 0.7815 0.8192
vt 0.7689 0.7676
vt 0.8039 0.7711
vt 0.8803 0.9114
vt 0.8780 0.8583
vt 0.8910 0.8583
vt 0.8530 0.7699
vt 0.8755 0.7676
vt 0.8755 0.8179
vt 0.9404 0.9417
vt 0.9404 0.9771
vt 0.9275 0.9771
vt 0.8817 0.9483
vt 0.8817 0.9543
vt 0.8780 0.9543
vt 0.8415 0.8682
vt 0.8415 0.9110
vt 0.8235 0.8973
vt 0.8186 0.9738
vt 0.8126 0.9738
vt 0.8115 0.9479
vt 0.7869 0.9011
vt 0.7740 0.9110
vt 0.7689 0.8721
vt 0.9841 0.9417
vt 0.9853 0.9844
vt 0.9770 0.9844
vt 0.7738 0.9479
vt 0.7749 0.9772
vt 0.7689 0.9772
vt 0.9337 0.9030
vt 0.9275 0.8583
vt 0.9435 0.8613
vt 0.9812 0.9034
vt 0.9801 0.8583
vt 0.9861 0.8583
vt 0.9182 0.7694
vt 0.9280 0.7676
vt 0.9280 0.8111
vt 0.1744 0.7671
vt 0.1768 0.8066
vt 0.1637 0.8066
vt 0.1050 0.7727
vt 0.1269 0.7671
vt 0.1269 0.8034
vt 0.2160 0.8027
vt 0.2136 0.7671
vt 0.2267 0.7671
vt 0.0340 0.8066
vt 0.0218 0.7671
vt 0.0559 0.7759
vt 0.1712 0.9631
vt 0.1712 0.9304
vt 0.1842 0.9304
vt 0.2339 0.9485
vt 0.2339 0.9393
vt 0.2376 0.9393
vt 0.1970 0.8857
vt 0.1856 0.8965
vt 0.1811 0.8611
vt 0.0290 0.9400
vt 0.0302 0.9682
vt 0.0218 0.9682
vt 0.1442 0.8570
vt 0.1442 0.8965
vt 0.1283 0.8815
vt 0.0742 0.9400
vt 0.0754 0.9623
vt 0.0670 0.9623
vt 0.1332 0.9304
vt 0.1343 0.9881
vt 0.1283 0.9881
vt 0.0326 0.8462
vt 0.0382 0.9061
vt 0.0218 0.9061
vt 0.2351 0.8462
vt 0.2388 0.8462
vt 0.2399 0.9053
vt 0.0806 0.8462
vt 0.0907 0.8462
vt 0.0914 0.9061
vt 0.3755 0.9127
vt 0.3776 0.9515
vt 0.3662 0.9515
vt 0.3900 0.7675
vt 0.3972 0.8061
vt 0.3662 0.8061
vt 0.4314 0.9779
vt 0.4294 0.9393
vt 0.4408 0.9393
vt 0.3900 0.8787
vt 0.3701 0.8787
vt 0.3662 0.8401
vt 0.4804 0.8549
vt 0.4804 0.8876
vt 0.4690 0.8876
vt 0.3078 0.9704
vt 0.3078 0.9611
vt 0.3110 0.9611
vt 0.2850 0.8315
vt 0.2729 0.8397
vt 0.2682 0.7789
vt 0.2745 0.8737
vt 0.2756 0.9366
vt 0.2682 0.9366
vt 0.3339 0.7757
vt 0.3339 0.8397
vt 0.3172 0.8284
vt 0.4357 0.8549
vt 0.4367 0.9053
vt 0.4294 0.9053
vt 0.4758 0.7675
vt 0.4768 0.8032
vt 0.4716 0.8032
vt 0.3177 0.9204
vt 0.3116 0.9271
vt 0.3078 0.8846
vt 0.4741 0.9672
vt 0.4730 0.9393
vt 0.4783 0.9393
vt 0.4393 0.7742
vt 0.4393 0.8209
vt 0.4294 0.8100
vt 0.1598 0.5704
vt 0.1576 0.5194
vt 0.1699 0.5194
vt 0.0331 0.5730
vt 0.0211 0.5194
vt 0.0545 0.5212
vt 0.1309 0.6632
vt 0.1287 0.6092
vt 0.1410 0.6092
vt 0.1013 0.5205
vt 0.1228 0.5194
vt 0.1228 0.5724
vt 0.1881 0.6919
vt 0.1881 0.7257
vt 0.1758 0.7257
vt 0.1322 0.6983
vt 0.1322 0.7025
vt 0.1287 0.7025
vt 0.0939 0.6165
vt 0.0939 0.6616
vt 0.0749 0.6514
vt 0.0279 0.6967
vt 0.0290 0.7259
vt 0.0211 0.7259
vt 0.0401 0.6542
vt 0.0264 0.6616
vt 0.0211 0.6194
vt 0.2299 0.6092
vt 0.2310 0.6526
vt 0.2231 0.6526
vt 0.0649 0.7259
vt 0.0638 0.6967
vt 0.0695 0.6967
vt 0.1883 0.6148
vt 0.1883 0.6568
vt 0.1758 0.6476
vt 0.2242 0.7290
vt 0.2231 0.6877
vt 0.2288 0.6877
vt 0.2172 0.5614
vt 0.2095 0.5670
vt 0.2047 0.5286
vt 0.6695 0.8647
vt 0.6282 0.8229
vt 0.5857 0.9182
vt 0.5146 0.8229
vt 0.5744 0.9527
vt 0.6709 0.9682
vt 0.6787 0.7604
vt 0.7332 0.8185
vt 0.5356 0.8574
vt 0.7221 0.8647
vt 0.9752 0.8044
vt 0.8039 0.8215
vt 0.8886 0.9114
vt 0.8405 0.8215
vt 0.9275 0.9417
vt 0.8780 0.9483
vt 0.8285 0.8583
vt 0.8198 0.9479
vt 0.7869 0.8583
vt 0.9782 0.9417
vt 0.7701 0.9479
vt 0.9435 0.9048
vt 0.9849 0.9034
vt 0.9120 0.8141
vt 0.1661 0.7671
vt 0.0928 0.8122
vt 0.2243 0.8027
vt 0.0559 0.8122
vt 0.1842 0.9631
vt 0.2376 0.9485
vt 0.1970 0.8462
vt 0.0230 0.9400
vt 0.1327 0.8462
vt 0.0682 0.9400
vt 0.1295 0.9304
vt 0.0225 0.8462
vt 0.2339 0.9053
vt 0.0750 0.9061
vt 0.3682 0.9127
vt 0.3701 0.7675
vt 0.4388 0.9779
vt 0.3972 0.8401
vt 0.4690 0.8549
vt 0.3110 0.9704
vt 0.2850 0.7675
vt 0.2693 0.8737
vt 0.3219 0.7675
vt 0.4304 0.8549
vt 0.4726 0.7675
vt 0.3177 0.8737
vt 0.4773 0.9672
vt 0.4332 0.7675
vt 0.1677 0.5704
vt 0.0545 0.5741
vt 0.1388 0.6632
vt 0.0893 0.5741
vt 0.1758 0.6919
vt 0.1287 0.6983
vt 0.0802 0.6092
vt 0.0222 0.6967
vt 0.0401 0.6092
vt 0.2242 0.6092
vt 0.0684 0.7259
vt 0.1806 0.6092
vt 0.2277 0.7290
vt 0.2172 0.5194
vn -0.9997 -0.0244 0.0000
vn 0.0000 0.0354 -0.9994
vn 0.9773 0.2119 0.0000
vn 0.0000 0.0354 0.9994
vn 0.0000 -1.0000 -0.0000
vn 0.0000 1.0000 0.0000
vn 0.0000 0.0383 0.9993
vn 0.9442 -0.3294 0.0000
vn 0.0000 0.0383 -0.9993
vn -0.8736 0.4866 0.0000
vn -0.6923 -0.1002 0.7146
vn -0.7174 0.0466 -0.6951
vn 0.6559 0.3340 -0.6770
vn 0.7174 0.0466 0.6951
vn 0.7178 0.0342 0.6954
vn 0.6037 -0.4972 -0.6231
vn -0.7178 0.0342 -0.6954
vn -0.5542 0.6048 0.5720
vn -0.5541 0.6048 0.5720
vn -0.6845 -0.1798 0.7065
vn -0.7179 0.0272 -0.6956
vn 0.6606 0.3143 -0.6818
vn 0.7179 0.0272 0.6956
vn -0.7839 0.5248 -0.3319
vn -0.7839 0.5248 -0.3318
vn 0.3891 0.0615 -0.9191
vn 0.8865 -0.2709 0.3753
vn -0.3891 0.0615 0.9191
vn -0.3895 0.0389 0.9202
vn 0.6453 0.7134 0.2732
vn 0.3895 0.0389 -0.9202
vn -0.7168 -0.6278 -0.3035
vn -0.7168 -0.6278 -0.3034
vn -0.9208 0.0116 -0.3898
vn 0.3898 0.0180 -0.9207
vn 0.9175 0.0858 0.3884
vn -0.3898 0.0180 0.9207
vn -0.9741 0.1068 0.1993
vn -0.2001 0.0557 -0.9782
vn 0.9614 0.1925 -0.1967
vn 0.2001 0.0557 0.9782
vn 0.2004 0.0200 0.9795
vn 0.8230 0.5425 -0.1683
vn -0.2004 0.0200 -0.9795
vn -0.8631 -0.4731 0.1766
vn -0.6772 0.7226 0.1385
vn -0.2003 0.0333 -0.9792
vn 0.7413 -0.6538 -0.1516
vn 0.2003 0.0333 0.9792
vn -0.8673 -0.0517 0.4951
vn -0.4953 0.0421 -0.8677
vn 0.8361 0.2703 -0.4773
vn 0.4953 0.0421 0.8677
vn 0.4956 0.0280 0.8681
vn 0.8121 -0.3545 -0.4636
vn -0.4956 0.0280 -0.8681
vn -0.7669 0.4692 0.4378
vn -0.7632 -0.4773 0.4356
vn -0.7631 -0.4773 0.4356
vn -0.4955 0.0327 -0.8680
vn 0.7045 0.5848 -0.4021
vn 0.4955 0.0327 0.8680
s 1
f 1/1/1 2/2/1 3/3/1
f 4/4/2 5/5/2 6/6/2
f 7/7/3 8/8/3 9/9/3
f 10/10/4 11/11/4 12/12/4
f 13/13/5 14/14/5 15/15/5
f 16/16/6 17/17/6 18/18/6
f 19/19/7 20/20/7 21/21/7
f 22/22/8 23/23/8 24/24/8
f 25/25/9 26/26/9 27/27/9
f 28/28/10 29/29/10 30/30/10
f 31/31/11 32/32/11 33/33/11
f 34/34/12 35/35/12 36/36/12
f 37/37/13 38/38/13 39/39/13
f 40/40/14 41/41/14 42/42/14
f 43/43/5 44/44/5 45/45/5
f 46/46/6 47/47/6 48/48/6
f 49/49/15 50/50/15 51/51/15
f 52/52/16 53/53/16 54/54/16
f 55/55/17 56/56/17 57/57/17
f 58/58/18 59/59/19 60/60/19
f 61/61/20 62/62/20 63/63/20
f 64/64/21 65/65/21 66/66/21
f 67/67/22 68/68/22 69/69/22
f 70/70/23 71/71/23 72/72/23
f 73/73/24 74/74/25 75/75/25
f 76/76/26 77/77/26 78/78/26
f 79/79/27 80/80/27 81/81/27
f 82/82/28 83/83/28 84/84/28
f 85/85/5 86/86/5 87/87/5
f 88/88/6 89/89/6 90/90/6
f 91/91/29 92/92/29 93/93/29
f 94/94/30 95/95/30 96/96/30
f 97/97/31 98/98/31 99/99/31
f 100/100/32 101/101/33 102/102/33
f 103/103/34 104/104/34 105/105/34
f 106/106/35 107/107/35 108/108/35
f 109/109/36 110/110/36 111/111/36
f 112/112/37 113/113/37 114/114/37
f 115/115/38 116/116/38 117/117/38
f 118/118/39 119/119/39 120/120/39
f 121/121/40 122/122/40 123/123/40
f 124/124/41 125/125/41 126/126/41
f 127/127/5 128/128/5 129/129/5
f 130/130/6 131/131/6 132/132/6
f 133/133/42 134/134/42 135/135/42
f 136/136/43 137/137/43 138/138/43
f 139/139/44 140/140/44 141/141/44
f 142/142/45 143/143/45 144/144/45
f 145/145/46 146/146/46 147/147/46
f 148/148/47 149/149/47 150/150/47
f 151/151/48 152/152/48 153/153/48
f 154/154/49 155/155/49 156/156/49
f 157/157/50 158/158/50 159/159/50
f 160/160/51 161/161/51 162/162/51
f 163/163/52 164/164/52 165/165/52
f 166/166/53 167/167/53 168/168/53
f 169/169/5 170/170/5 171/171/5
f 172/172/6 173/173/6 174/174/6
f 175/175/54 176/176/54 177/177/54
f 178/178/55 179/179/55 180/180/55
f 181/181/56 182/182/56 183/183/56
f 184/184/57 185/185/57 186/186/57
f 187/187/58 188/188/59 189/189/59
f 190/190/60 191/191/60 192/192/60
f 193/193/61 194/194/61 195/195/61
f 196/196/62 197/197/62 198/198/62
f 199/199/1 1/1/1 3/3/1
f 200/200/2 4/4/2 6/6/2
f 201/201/3 7/7/3 9/9/3
f 202/202/4 10/10/4 12/12/4
f 203/203/5 13/13/5 15/15/5
f 204/204/6 16/16/6 18/18/6
f 205/205/7 19/19/7 21/21/7
f 206/206/8 22/22/8 24/24/8
f 207/207/9 25/25/9 27/27/9
f 208/208/10 28/28/10 30/30/10
f 209/209/11 31/31/11 33/33/11
f 210/210/12 34/34/12 36/36/12
f 211/211/13 37/37/13 39/39/13
f 212/212/14 40/40/14 42/42/14
f 213/213/5 43/43/5 45/45/5
f 214/214/6 46/46/6 48/48/6
f 215/215/15 49/49/15 51/51/15
f 216/216/16 52/52/16 54/54/16
f 217/217/17 55/55/17 57/57/17
f 218/218/18 58/58/18 60/60/19
f 219/219/20 61/61/20 63/63/20
f 220/220/21 64/64/21 66/66/21
f 221/221/22 67/67/22 69/69/22
f 222/222/23 70/70/23 72/72/23
f 223/223/24 73/73/24 75/75/25
f 224/224/26 76/76/26 78/78/26
f 225/225/27 79/79/27 81/81/27
f 226/226/28 82/82/28 84/84/28
f 227/227/5 85/85/5 87/87/5
f 228/228/6 88/88/6 90/90/6
f 229/229/29 91/91/29 93/93/29
f 230/230/30 94/94/30 96/96/30
f 231/231/31 97/97/31 99/99/31
f 232/232/32 100/100/32 102/102/33
f 233/233/34 103/103/34 105/105/34
f 234/234/35 106/106/35 108/108/35
f 235/235/36 109/109/36 111/111/36
f 236/236/37 112/112/37 114/114/37
f 237/237/38 115/115/38 117/117/38
f 238/238/39 118/118/39 120/120/39
f 239/239/40 121/121/40 123/123/40
f 240/240/41 124/124/41 126/126/41
f 241/241/5 127/127/5 129/129/5
f 242/242/6 130/130/6 132/132/6
f 243/243/42 133/133/42 135/135/42
f 244/244/43 136/136/43 138/138/43
f 245/245/44 139/139/44 141/141/44
f 246/246/45 142/142/45 144/144/45
f 247/247/46 145/145/46 147/147/46
f 248/248/47 148/148/47 150/150/47
f 249/249/48 151/151/48 153/153/48
f 250/250/49 154/154/49 156/156/49
f 251/251/50 157/157/50 159/159/50
f 252/252/51 160/160/51 162/162/51
f 253/253/52 163/163/52 165/165/52
f 254/254/53 166/166/53 168/168/53
f 255/255/5 169/169/5 171/171/5
f 256/256/6 172/172/6 174/174/6
f 257/257/54 175/175/54 177/177/54
f 258/258/55 178/178/55 180/180/55
f 259/259/56 181/181/56 183/183/56
f 260/260/57 184/184/57 186/186/57
f 261/261/58 187/187/58 189/189/59
f 262/262/60 190/190/60 192/192/60
f 263/263/61 193/193/61 195/195/61
f 264/264/62 196/196/62 198/198/62
