# Blender v2.76 (sub 0) OBJ File: 'hut.blend'
# www.blender.org
o Cylinder_Cylinder.002
v -0.959207 2.000000 -2.308662
v 0.954209 2.000000 -2.310733
v 2.308662 2.000000 -0.959207
v 2.310733 2.000000 0.954209
v 0.959207 2.000000 2.308663
v 0.000000 4.000000 0.000000
v -0.954209 2.000000 2.310733
v -2.308662 2.000000 0.959207
v -2.310733 2.000000 -0.954209
v -0.767363 0.200000 -1.846931
v -0.767363 2.000000 -1.846931
v 0.763370 0.200000 -1.848585
v 0.763370 2.000000 -1.848585
v 1.846931 0.200000 -0.767363
v 1.846931 2.000000 -0.767363
v 1.848585 0.200000 0.763370
v 1.848585 2.000000 0.763370
v 0.767363 0.200000 1.846931
v 0.767363 2.000000 1.846931
v -0.763370 0.200000 1.848585
v -0.763370 2.000000 1.848585
v -1.846931 0.200000 0.767363
v -1.846931 2.000000 0.767363
v -1.848585 0.200000 -0.763369
v -1.848585 2.000000 -0.763369
v -0.363370 0.200000 1.848585
v 0.367363 0.200000 1.846931
v -0.290297 1.500000 1.848419
v 0.294290 1.500000 1.847096
v -0.853460 0.200000 -1.700799
v 0.857453 0.200000 -1.704672
v -0.682369 1.500000 -1.701186
v 0.686362 1.500000 -1.704284
v -0.920916 0.000000 -2.290228
v 0.915964 0.000000 -2.292213
v 2.216238 0.000000 -0.994746
v 2.218223 0.000000 0.842133
v 0.920756 0.000000 2.142407
v -0.916124 0.000000 2.144392
v -2.216397 0.000000 0.846926
v -2.218382 0.000000 -0.989954
v -0.436124 0.000000 2.144392
v 0.440756 0.000000 2.142407
v -0.959207 2.000000 -2.308662
v -0.959207 2.000000 -2.308662
v -0.959207 2.000000 -2.308662
v 0.954209 2.000000 -2.310733
v 0.954209 2.000000 -2.310733
v 0.954209 2.000000 -2.310733
v 0.000000 4.000000 0.000000
v 0.000000 4.000000 0.000000
v 0.000000 4.000000 0.000000
v 0.000000 4.000000 0.000000
v 0.000000 4.000000 0.000000
v 0.000000 4.000000 0.000000
v 0.000000 4.000000 0.000000
v 2.308662 2.000000 -0.959207
v 2.308662 2.000000 -0.959207
v 2.308662 2.000000 -0.959207
v 2.310733 2.000000 0.954209
v 2.310733 2.000000 0.954209
v 2.310733 2.000000 0.954209
v -2.310733 2.000000 -0.954209
v -2.310733 2.000000 -0.954209
v -2.310733 2.000000 -0.954209
v 0.959207 2.000000 2.308663
v 0.959207 2.000000 2.308663
v 0.959207 2.000000 2.308663
v -2.308662 2.000000 0.959207
v -2.308662 2.000000 0.959207
v -2.308662 2.000000 0.959207
v -0.954209 2.000000 2.310733
v -0.954209 2.000000 2.310733
v -0.954209 2.000000 2.310733
v -0.767363 0.200000 -1.846931
v -0.767363 0.200000 -1.846931
v -0.767363 0.200000 -1.846931
v 0.763370 0.200000 -1.848585
v 0.763370 0.200000 -1.848585
v 0.763370 0.200000 -1.848585
v 0.763370 2.000000 -1.848585
v 0.763370 2.000000 -1.848585
v 0.763370 2.000000 -1.848585
v -0.767363 2.000000 -1.846931
v -0.767363 2.000000 -1.846931
v -0.767363 2.000000 -1.846931
v 1.846931 0.200000 -0.767363
v 1.846931 0.200000 -0.767363
v 1.846931 0.200000 -0.767363
v 1.846931 2.000000 -0.767363
v 1.846931 2.000000 -0.767363
v 1.846931 2.000000 -0.767363
v 1.848585 0.200000 0.763370
v 1.848585 0.200000 0.763370
v 1.848585 0.200000 0.763370
v 1.848585 2.000000 0.763370
v 1.848585 2.000000 0.763370
v 1.848585 2.000000 0.763370
v 0.767363 0.200000 1.846931
v 0.767363 0.200000 1.846931
v 0.767363 0.200000 1.846931
v 0.767363 2.000000 1.846931
v 0.767363 2.000000 1.846931
v 0.767363 2.000000 1.846931
v 0.767363 2.000000 1.846931
v 0.367363 0.200000 1.846931
v 0.367363 0.200000 1.846931
v 0.367363 0.200000 1.846931
v 0.367363 0.200000 1.846931
v -0.763370 2.000000 1.848585
v -0.763370 2.000000 1.848585
v -0.763370 2.000000 1.848585
v -0.763370 2.000000 1.848585
v -0.763370 0.200000 1.848585
v -0.763370 0.200000 1.848585
v -0.763370 0.200000 1.848585
v -1.846931 0.200000 0.767363
v -1.846931 0.200000 0.767363
v -1.846931 0.200000 0.767363
v -1.846931 2.000000 0.767363
v -1.846931 2.000000 0.767363
v -1.846931 2.000000 0.767363
v -1.848585 0.200000 -0.763369
v -1.848585 0.200000 -0.763369
v -1.848585 0.200000 -0.763369
v -1.848585 2.000000 -0.763369
v -1.848585 2.000000 -0.763369
v -1.848585 2.000000 -0.763369
v -0.363370 0.200000 1.848585
v -0.363370 0.200000 1.848585
v -0.363370 0.200000 1.848585
v -0.363370 0.200000 1.848585
v -0.290297 1.500000 1.848419
v -0.290297 1.500000 1.848419
v -0.290297 1.500000 1.848419
v 0.294290 1.500000 1.847096
v 0.294290 1.500000 1.847096
v 0.294290 1.500000 1.847096
v -0.853460 0.200000 -1.700799
v -0.853460 0.200000 -1.700799
v -0.682369 1.500000 -1.701186
v -0.682369 1.500000 -1.701186
v 0.857453 0.200000 -1.704672
v 0.857453 0.200000 -1.704672
v 0.686362 1.500000 -1.704284
v 0.686362 1.500000 -1.704284
v -0.920916 0.000000 -2.290228
v 0.915964 0.000000 -2.292213
v 2.216238 0.000000 -0.994746
v 2.218223 0.000000 0.842133
v 0.920756 0.000000 2.142407
v 0.440756 0.000000 2.142407
v -0.916124 0.000000 2.144392
v -2.216397 0.000000 0.846926
v -2.218382 0.000000 -0.989954
v -0.436124 0.000000 2.144392
vt 0.251969 0.748031
vt 0.754232 0.735630
vt 0.245768 0.251969
vn -0.654600 0.756000 0.000700
vn -0.000700 0.756000 -0.654600
vn -0.462400 0.756000 0.463400
vn 0.000700 0.756000 0.654600
vn 0.463400 0.756000 0.462400
vn 0.654600 0.756000 -0.000700
vn -0.463400 0.756000 -0.462400
vn 0.462400 0.756000 -0.463400
vn -0.001100 0.000000 -1.000000
vn 0.706300 0.000000 -0.707900
vn 1.000000 0.000000 -0.001100
vn 0.707900 0.000000 0.706300
vn -0.000000 -0.000100 1.000000
vn -0.706300 0.000000 0.707900
vn -0.707900 0.000000 -0.706300
vn -1.000000 0.000000 0.001100
vn 0.000000 0.000100 1.000000
vn 0.002300 0.001800 1.000000
vn 0.000000 -1.000000 0.000000
vn -0.982300 -0.129200 -0.135500
vn 0.000000 1.000000 0.000000
vn 0.982300 -0.129300 -0.135600
vn 0.002300 0.000000 1.000000
vn -0.303300 0.903600 -0.302600
vn -0.476000 0.879500 0.000500
vn -0.376700 0.846000 0.377500
vn 0.000000 0.828400 0.560100
vn 0.001300 0.828300 0.560300
vn -0.000000 0.828100 0.560500
vn 0.377500 0.846000 0.376700
vn 0.476000 0.879500 -0.000500
vn 0.302600 0.903600 -0.303300
vn -0.000400 0.911600 -0.411100
vn 0.000300 0.000000 1.000000
vn 0.001100 -0.000700 1.000000
vn -0.992400 -0.055800 -0.109600
vn 0.992400 -0.055800 -0.109600
s off
f 69/1/1 52/1/1 63/1/1
f 44/1/2 51/1/2 47/1/2
f 73/1/3 54/1/3 70/1/3
f 67/1/4 53/1/4 72/1/4
f 61/1/5 55/1/5 66/1/5
f 57/1/6 50/1/6 60/1/6
f 64/1/7 56/1/7 45/1/7
f 48/1/8 6/1/8 58/1/8
f 84/2/9 81/2/9 78/2/9
f 82/2/10 90/2/10 87/2/10
f 91/2/11 96/2/11 93/2/11
f 97/2/12 102/2/12 99/2/12
f 136/2/13 106/2/13 100/2/13
f 111/2/14 120/2/14 117/2/14
f 127/2/15 85/2/15 76/2/15
f 121/2/16 126/2/16 123/2/16
f 115/2/17 129/2/17 133/2/17
f 110/2/18 134/2/18 137/2/18
f 46/1/19 86/1/19 128/1/19
f 9/1/19 25/1/19 122/1/19
f 8/1/19 23/1/19 113/1/19
f 7/1/19 21/1/19 105/1/19
f 5/1/19 19/1/19 98/1/19
f 4/1/19 17/1/19 92/1/19
f 3/1/19 15/1/19 83/1/19
f 2/1/19 13/1/19 11/1/19
f 142/2/19 146/2/19 138/2/19
f 145/2/20 143/2/20 108/2/20
f 107/2/21 144/2/21 140/2/21
f 26/2/22 139/2/22 141/2/22
f 32/2/23 30/2/23 31/2/23
f 77/3/24 34/3/24 41/3/24
f 24/3/25 155/3/25 40/3/25
f 22/3/26 154/3/26 153/3/26
f 20/3/27 39/3/27 156/3/27
f 132/3/28 42/3/28 43/3/28
f 152/3/29 38/3/29 101/3/29
f 151/3/30 37/3/30 95/3/30
f 150/3/31 36/3/31 89/3/31
f 149/3/32 35/3/32 80/3/32
f 148/3/33 147/3/33 10/3/33
f 75/2/9 84/2/9 78/2/9
f 79/2/10 82/2/10 87/2/10
f 88/2/11 91/2/11 93/2/11
f 94/2/12 97/2/12 99/2/12
f 104/2/34 136/2/34 100/2/34
f 114/2/14 111/2/14 117/2/14
f 124/2/15 127/2/15 76/2/15
f 118/2/16 121/2/16 123/2/16
f 112/2/34 115/2/34 133/2/34
f 103/2/35 110/2/35 137/2/35
f 65/1/19 46/1/19 128/1/19
f 71/1/19 9/1/19 122/1/19
f 74/1/19 8/1/19 113/1/19
f 68/1/19 7/1/19 105/1/19
f 62/1/19 5/1/19 98/1/19
f 59/1/19 4/1/19 92/1/19
f 49/1/19 3/1/19 83/1/19
f 1/1/19 2/1/19 11/1/19
f 135/2/19 142/2/19 138/2/19
f 29/2/36 145/2/36 108/2/36
f 130/2/21 107/2/21 140/2/21
f 28/2/37 26/2/37 141/2/37
f 33/2/23 32/2/23 31/2/23
f 125/3/24 77/3/24 41/3/24
f 119/3/25 24/3/25 40/3/25
f 116/3/26 22/3/26 153/3/26
f 131/3/27 20/3/27 156/3/27
f 109/3/28 132/3/28 43/3/28
f 27/3/29 152/3/29 101/3/29
f 18/3/30 151/3/30 95/3/30
f 16/3/31 150/3/31 89/3/31
f 14/3/32 149/3/32 80/3/32
f 12/3/33 148/3/33 10/3/33
