# Blender v2.79 (sub 0) OBJ File: 'hut.blend'
# www.blender.org
o Cylinder_Cylinder.002
v -3.981503 3.098682 -1.645415
v 1.583941 3.098683 -3.957755
v 1.592460 3.098681 3.916499
v 3.892750 3.098682 -1.653934
v 3.896281 3.098682 1.607688
v -0.042611 6.507896 -0.018862
v 3.105681 3.098682 -1.326915
v 3.108500 3.098682 1.282383
v -1.343857 3.098682 3.132248
v -3.193722 3.098682 -1.320107
v -0.537453 2.246378 3.131965
v -1.677682 3.098683 -3.954225
v -1.350663 3.098683 -3.167154
v -3.190902 3.098682 1.289189
v -3.977972 3.098682 1.616208
v 1.265442 3.098682 3.129428
v 1.258635 3.098683 -3.169974
v -1.350663 0.030390 -3.167155
v -3.824080 -0.310532 -1.706346
v -3.820697 -0.310532 1.424812
v -1.604242 -0.310533 3.636482
v 1.526916 -0.310533 3.633098
v 1.265442 0.030389 3.129428
v 3.738588 -0.310532 1.416642
v 3.735204 -0.310532 -1.714515
v 1.518748 -0.310531 -3.926186
v -1.612411 -0.310531 -3.922802
v -1.669162 3.098681 3.920028
v 0.459038 2.246378 3.129710
v -1.213664 0.030389 2.880131
v -3.193722 0.030390 -1.320108
v -3.190902 0.030389 1.289189
v 3.108500 0.030389 1.282382
v 3.105681 0.030390 -1.326916
v 1.258635 0.030390 -3.169974
v 0.583599 0.030389 3.129428
v -0.662014 0.030389 3.132248
v -1.343857 0.030389 3.132248
v -0.600005 0.030389 2.880131
v 0.521046 0.030389 2.877593
v 1.128578 0.030390 -2.791869
v 2.790920 0.030390 -1.133117
v 2.793457 0.030389 1.215252
v -2.876005 0.030389 1.221377
v -2.878542 0.030390 -1.126989
v 0.408941 2.246378 2.877847
v 1.134704 0.030389 2.877593
v -1.219790 0.030390 -2.789332
v 1.128578 3.098683 -2.791868
v 1.134704 3.098682 2.877594
v -2.876005 3.098682 1.221378
v -1.219790 3.098683 -2.789331
v -0.487901 2.246378 2.879876
v -2.878542 3.098682 -1.126989
v -1.213664 3.098682 2.880131
v 2.793457 3.098682 1.215252
v 2.790920 3.098682 -1.133116
v 2.458452 2.485024 -1.464867
v 1.461047 2.485024 -2.460118
v 2.458452 0.644048 -1.464867
v 1.461047 0.644048 -2.460119
v 2.736271 2.485024 -1.695527
v 1.628044 2.485024 -2.801362
v 2.736271 0.644048 -1.695527
v 1.628044 0.644048 -2.801363
v 2.790920 3.098682 -1.133116
v 2.790920 3.098682 -1.133116
v 2.790920 3.098682 -1.133116
v 2.793457 3.098682 1.215252
v 2.793457 3.098682 1.215252
v 3.738588 -0.310532 1.416642
v 3.735204 -0.310532 -1.714515
v 1.518748 -0.310531 -3.926186
v -1.612411 -0.310531 -3.922802
v -3.193722 0.030390 -1.320108
v -3.193722 0.030390 -1.320108
v -3.193722 0.030390 -1.320108
v -3.190902 0.030389 1.289189
v -3.190902 0.030389 1.289189
v -3.190902 0.030389 1.289189
v 3.892750 3.098682 -1.653934
v 3.892750 3.098682 -1.653934
v 3.892750 3.098682 -1.653934
v 3.896281 3.098682 1.607688
v 3.896281 3.098682 1.607688
v 3.896281 3.098682 1.607688
v 3.108500 0.030389 1.282382
v 3.108500 0.030389 1.282382
v 3.108500 0.030389 1.282382
v 3.105681 0.030390 -1.326916
v 3.105681 0.030390 -1.326916
v 3.105681 0.030390 -1.326916
v 3.105681 0.030390 -1.326916
v -3.977972 3.098682 1.616208
v -3.977972 3.098682 1.616208
v -3.977972 3.098682 1.616208
v -1.669162 3.098681 3.920028
v -1.669162 3.098681 3.920028
v -1.669162 3.098681 3.920028
v -3.193722 3.098682 -1.320107
v -3.193722 3.098682 -1.320107
v -3.193722 3.098682 -1.320107
v -1.343857 0.030389 3.132248
v -1.343857 0.030389 3.132248
v -1.343857 0.030389 3.132248
v -1.343857 3.098682 3.132248
v -1.343857 3.098682 3.132248
v -1.343857 3.098682 3.132248
v 1.258635 3.098683 -3.169974
v 1.258635 3.098683 -3.169974
v 1.258635 3.098683 -3.169974
v 1.258635 3.098683 -3.169974
v 1.258635 0.030390 -3.169974
v 1.258635 0.030390 -3.169974
v 1.258635 0.030390 -3.169974
v 1.258635 0.030390 -3.169974
v -0.042611 6.507896 -0.018862
v -0.042611 6.507896 -0.018862
v -0.042611 6.507896 -0.018862
v -0.042611 6.507896 -0.018862
v -0.042611 6.507896 -0.018862
v -0.042611 6.507896 -0.018862
v -0.042611 6.507896 -0.018862
v 1.265442 0.030389 3.129428
v 1.265442 0.030389 3.129428
v 1.265442 0.030389 3.129428
v 1.526916 -0.310533 3.633098
v 1.583941 3.098683 -3.957755
v 1.583941 3.098683 -3.957755
v 1.583941 3.098683 -3.957755
v -3.824080 -0.310532 -1.706346
v -2.878542 3.098682 -1.126989
v -2.878542 3.098682 -1.126989
v -1.219790 3.098683 -2.789331
v -1.219790 3.098683 -2.789331
v 0.459038 2.246378 3.129710
v 0.459038 2.246378 3.129710
v 0.583599 0.030389 3.129428
v 0.583599 0.030389 3.129428
v 0.583599 0.030389 3.129428
v -0.537453 2.246378 3.131965
v -0.537453 2.246378 3.131965
v -0.662014 0.030389 3.132248
v -0.662014 0.030389 3.132248
v -0.662014 0.030389 3.132248
v -1.219790 0.030390 -2.789332
v -1.219790 0.030390 -2.789332
v -2.878542 0.030390 -1.126989
v -2.878542 0.030390 -1.126989
v -1.350663 3.098683 -3.167154
v -1.350663 3.098683 -3.167154
v -1.350663 3.098683 -3.167154
v -1.350663 0.030390 -3.167155
v -1.350663 0.030390 -3.167155
v -1.350663 0.030390 -3.167155
v 1.265442 3.098682 3.129428
v 1.265442 3.098682 3.129428
v 1.265442 3.098682 3.129428
v 3.108500 3.098682 1.282383
v 3.108500 3.098682 1.282383
v 3.108500 3.098682 1.282383
v 2.790920 0.030390 -1.133117
v 2.790920 0.030390 -1.133117
v 2.790920 0.030390 -1.133117
v 2.458452 0.644048 -1.464867
v 2.458452 0.644048 -1.464867
v 2.458452 0.644048 -1.464867
v -3.981503 3.098682 -1.645415
v -3.981503 3.098682 -1.645415
v -3.981503 3.098682 -1.645415
v -1.677682 3.098683 -3.954225
v -1.677682 3.098683 -3.954225
v -1.677682 3.098683 -3.954225
v 1.592460 3.098681 3.916499
v 1.592460 3.098681 3.916499
v 1.592460 3.098681 3.916499
v -3.190902 3.098682 1.289189
v -3.190902 3.098682 1.289189
v -3.190902 3.098682 1.289189
v -2.876005 0.030389 1.221377
v -2.876005 0.030389 1.221377
v -1.213664 0.030389 2.880131
v -1.213664 0.030389 2.880131
v 1.128578 3.098683 -2.791868
v 1.128578 3.098683 -2.791868
v 1.128578 3.098683 -2.791868
v 3.105681 3.098682 -1.326915
v 3.105681 3.098682 -1.326915
v 3.105681 3.098682 -1.326915
v 3.105681 3.098682 -1.326915
v -3.820697 -0.310532 1.424812
v -1.604242 -0.310533 3.636482
v -0.600005 0.030389 2.880131
v -0.600005 0.030389 2.880131
v -0.600005 0.030389 2.880131
v 0.521046 0.030389 2.877593
v 0.521046 0.030389 2.877593
v 0.521046 0.030389 2.877593
v 1.134704 0.030389 2.877593
v 1.134704 0.030389 2.877593
v 1.134704 3.098682 2.877594
v 1.134704 3.098682 2.877594
v 1.128578 0.030390 -2.791869
v 1.128578 0.030390 -2.791869
v 1.128578 0.030390 -2.791869
v -2.876005 3.098682 1.221378
v -2.876005 3.098682 1.221378
v -1.213664 3.098682 2.880131
v -1.213664 3.098682 2.880131
v 2.793457 0.030389 1.215252
v 2.793457 0.030389 1.215252
v -0.487901 2.246378 2.879876
v -0.487901 2.246378 2.879876
v 0.408941 2.246378 2.877847
v 0.408941 2.246378 2.877847
v 1.461047 0.644048 -2.460119
v 1.461047 0.644048 -2.460119
v 1.461047 0.644048 -2.460119
v 2.458452 2.485024 -1.464867
v 2.458452 2.485024 -1.464867
v 2.458452 2.485024 -1.464867
v 1.461047 2.485024 -2.460118
v 1.461047 2.485024 -2.460118
v 1.461047 2.485024 -2.460118
v 1.628044 2.485024 -2.801362
v 1.628044 2.485024 -2.801362
v 1.628044 2.485024 -2.801362
v 1.628044 0.644048 -2.801363
v 1.628044 0.644048 -2.801363
v 1.628044 0.644048 -2.801363
v 2.736271 2.485024 -1.695527
v 2.736271 2.485024 -1.695527
v 2.736271 2.485024 -1.695527
v 2.736271 0.644048 -1.695527
v 2.736271 0.644048 -1.695527
v 2.736271 0.644048 -1.695527
vt 0.031271 0.817043
vt 0.126542 0.839904
vt 0.031753 0.891527
vt 0.071216 0.954042
vt 0.126542 0.839904
vt 0.126542 0.967967
vt 0.070050 0.774221
vt 0.126542 0.839904
vt 0.031271 0.817043
vt 0.171216 0.954042
vt 0.226542 0.839904
vt 0.226542 0.967967
vt 0.131753 0.891527
vt 0.226542 0.839904
vt 0.171216 0.954042
vt 0.131271 0.817043
vt 0.226542 0.839904
vt 0.131753 0.891527
vt 0.031753 0.891527
vt 0.126542 0.839904
vt 0.071216 0.954042
vt 0.170050 0.774221
vt 0.226542 0.839904
vt 0.131271 0.817043
vt 0.854455 0.925739
vt 0.918725 0.978705
vt 0.854455 0.978705
vt 0.854455 0.886534
vt 0.918725 0.925739
vt 0.854455 0.925739
vt 0.854455 0.834467
vt 0.919089 0.881444
vt 0.854830 0.881339
vt 0.784965 0.783795
vt 0.848117 0.830752
vt 0.783873 0.830260
vt 0.783873 0.830260
vt 0.848117 0.881668
vt 0.783873 0.881176
vt 0.854830 0.783795
vt 0.918715 0.834572
vt 0.854455 0.834467
vt 0.352736 0.711033
vt 0.278774 0.722060
vt 0.297264 0.711033
vt 0.445545 0.695131
vt 0.471226 0.683074
vt 0.471226 0.722060
vt 0.054899 0.658411
vt 0.088900 0.721793
vt 0.032323 0.665093
vt 0.054899 0.591589
vt 0.088900 0.528207
vt 0.102046 0.544339
vt 0.225489 0.584907
vt 0.168723 0.544339
vt 0.168912 0.528207
vt 0.102046 0.544339
vt 0.168912 0.528207
vt 0.168723 0.544339
vt 0.054899 0.591589
vt 0.032323 0.665093
vt 0.032323 0.584907
vt 0.371226 0.566926
vt 0.278774 0.622060
vt 0.278774 0.566926
vt 0.471226 0.683074
vt 0.378774 0.627940
vt 0.471226 0.627940
vt 0.471226 0.527940
vt 0.378774 0.566926
vt 0.378774 0.527940
vt 0.102046 0.705661
vt 0.168912 0.721793
vt 0.088900 0.721793
vt 0.168723 0.705661
vt 0.225489 0.665093
vt 0.168912 0.721793
vt 0.470355 0.841106
vt 0.405553 0.803716
vt 0.413582 0.784333
vt 0.802473 0.898949
vt 0.784965 0.906716
vt 0.783873 0.881176
vt 0.278774 0.527940
vt 0.371226 0.566926
vt 0.278774 0.566926
vt 0.371226 0.627940
vt 0.278774 0.666926
vt 0.278774 0.627940
vt 0.378774 0.566926
vt 0.471226 0.622060
vt 0.378774 0.622060
vt 0.543875 0.570656
vt 0.566157 0.536401
vt 0.570687 0.543907
vt 0.937260 0.871373
vt 0.942413 0.826392
vt 0.942413 0.871465
vt 0.802473 0.898949
vt 0.849003 0.895425
vt 0.848924 0.900521
vt 0.801928 0.913316
vt 0.796650 0.932547
vt 0.796650 0.912298
vt 0.570687 0.543907
vt 0.720769 0.585331
vt 0.720769 0.664669
vt 0.352736 0.677953
vt 0.371226 0.722060
vt 0.352736 0.711033
vt 0.371226 0.666926
vt 0.297264 0.677953
vt 0.278774 0.666926
vt 0.297264 0.711033
vt 0.278774 0.666926
vt 0.297264 0.677953
vt 0.934902 0.899004
vt 0.978627 0.886534
vt 0.967696 0.899004
vt 0.967696 0.936414
vt 0.978627 0.886534
vt 0.978627 0.948885
vt 0.923971 0.948885
vt 0.967696 0.936414
vt 0.978627 0.948885
vt 0.923971 0.886534
vt 0.934902 0.936414
vt 0.923971 0.948885
vt 0.783873 0.914794
vt 0.791404 0.944112
vt 0.783873 0.943426
vt 0.924336 0.826294
vt 0.931891 0.863704
vt 0.924336 0.863704
vt 0.945067 0.783795
vt 0.937536 0.813113
vt 0.937536 0.784480
vt 0.924336 0.783799
vt 0.932290 0.821200
vt 0.924336 0.821204
vt 0.413582 0.784333
vt 0.341322 0.803716
vt 0.333293 0.784333
vt 0.333293 0.784333
vt 0.295904 0.849134
vt 0.276520 0.841106
vt 0.295904 0.913365
vt 0.276520 0.841106
vt 0.295904 0.849134
vt 0.276520 0.921394
vt 0.341322 0.958784
vt 0.333293 0.978167
vt 0.405553 0.958784
vt 0.333293 0.978167
vt 0.341322 0.958784
vt 0.413582 0.978167
vt 0.450971 0.913366
vt 0.470355 0.921394
vt 0.470355 0.921394
vt 0.450971 0.849135
vt 0.470355 0.841106
vt 0.531575 0.841581
vt 0.667013 0.785481
vt 0.723113 0.920919
vt 0.215889 0.609051
vt 0.225489 0.665093
vt 0.215852 0.640949
vt 0.918725 0.925739
vt 0.918725 0.886534
vt 0.918715 0.834572
vt 0.849209 0.784287
vt 0.848117 0.830752
vt 0.919089 0.783899
vt 0.371226 0.722060
vt 0.378774 0.693273
vt 0.378774 0.683074
vt 0.378774 0.722060
vt 0.445545 0.710002
vt 0.378774 0.711861
vt 0.102046 0.705661
vt 0.032323 0.584907
vt 0.215870 0.591589
vt 0.088900 0.528207
vt 0.054899 0.658411
vt 0.371226 0.622060
vt 0.378774 0.683074
vt 0.471226 0.566926
vt 0.168723 0.705661
vt 0.215871 0.658411
vt 0.450971 0.849135
vt 0.848924 0.900521
vt 0.849209 0.907208
vt 0.848117 0.881668
vt 0.802056 0.889216
vt 0.848402 0.888355
vt 0.371226 0.527940
vt 0.371226 0.666926
vt 0.471226 0.566926
vt 0.536366 0.566122
vt 0.937137 0.826294
vt 0.802558 0.893975
vt 0.801928 0.931541
vt 0.664669 0.720769
vt 0.585331 0.720769
vt 0.529231 0.664669
vt 0.543875 0.570656
vt 0.529231 0.585331
vt 0.585331 0.529231
vt 0.664669 0.529231
vt 0.371226 0.666926
vt 0.352736 0.677953
vt 0.278774 0.722060
vt 0.923971 0.886534
vt 0.967696 0.899004
vt 0.934902 0.936414
vt 0.934902 0.899004
vt 0.791404 0.912298
vt 0.931891 0.826294
vt 0.945067 0.815609
vt 0.932290 0.783795
vt 0.405553 0.803716
vt 0.341322 0.803716
vt 0.276520 0.921394
vt 0.295904 0.913365
vt 0.413582 0.978167
vt 0.405553 0.958784
vt 0.450971 0.913366
vt 0.667013 0.977019
vt 0.587675 0.977019
vt 0.531575 0.920919
vt 0.587675 0.785481
vt 0.723113 0.841581
vt 0.215870 0.591589
vt 0.225489 0.584907
vt 0.215871 0.658411
vn -0.6546 0.7560 0.0007
vn -0.0007 0.7560 -0.6546
vn -0.4624 0.7560 0.4634
vn 0.0007 0.7560 0.6546
vn 0.4634 0.7560 0.4624
vn 0.6546 0.7560 -0.0007
vn -0.4634 0.7560 -0.4624
vn 0.4624 0.7560 -0.4634
vn -0.7079 0.0000 -0.7063
vn -0.0011 0.0000 -1.0000
vn 1.0000 0.0000 -0.0011
vn -1.0000 0.0000 0.0011
vn -0.7063 -0.0000 0.7079
vn 0.7079 -0.0000 0.7063
vn -0.0011 -0.0005 -1.0000
vn -0.0011 -0.0006 -1.0000
vn 0.3026 0.9036 -0.3033
vn -0.3033 0.9036 -0.3026
vn -0.3767 0.8460 0.3775
vn -0.4760 0.8795 0.0005
vn -0.0004 0.9116 -0.4111
vn 0.7063 0.0000 -0.7079
vn 0.4760 0.8795 -0.0005
vn 0.3775 0.8460 0.3767
vn 0.0000 -1.0000 -0.0000
vn 0.0012 -0.0007 1.0000
vn 0.0011 -0.0007 1.0000
vn 0.0011 -0.0000 1.0000
vn 0.0000 1.0000 0.0000
vn 0.9800 -0.0496 0.1926
vn 0.9800 -0.0496 0.1927
vn -0.9691 -0.0546 0.2406
vn -0.9691 -0.0545 0.2407
vn 0.0001 -1.0000 0.0000
vn -0.0001 -1.0000 0.0001
vn 0.0000 -1.0000 -0.0001
vn -0.6388 0.0000 -0.7694
vn 0.8982 -0.0000 0.4396
vn 0.0013 0.8292 0.5589
vn -0.0000 -0.0002 -1.0000
vn 0.0000 -0.0001 -1.0000
vn -0.0003 0.0000 -1.0000
vn -0.0003 0.0001 -1.0000
vn 0.0000 0.0001 -1.0000
vn 0.0001 0.0001 -1.0000
vn -0.0004 -0.0001 -1.0000
vn -0.0004 0.0000 -1.0000
vn -0.0023 0.0016 -1.0000
vn -0.0024 0.0016 -1.0000
vn -0.0022 0.0017 -1.0000
vn -0.0001 -0.0002 1.0000
vn 0.0000 -0.0001 1.0000
vn 0.0004 -0.0000 1.0000
vn 0.0003 0.0001 1.0000
vn 0.0000 0.0001 1.0000
vn -0.0000 0.0000 1.0000
vn 0.0003 -0.0001 1.0000
vn 0.0003 -0.0000 1.0000
vn 0.0023 0.0018 1.0000
vn 0.0024 0.0018 1.0000
vn 0.0022 0.0019 1.0000
vn 0.9696 -0.0546 0.2385
vn 0.9696 -0.0545 0.2385
vn -0.9796 -0.0495 0.1948
vn -0.9796 -0.0497 0.1948
vn -0.9796 -0.0496 0.1948
vn 0.0001 -1.0000 0.0001
vn -0.0001 -1.0000 0.0000
vn 0.0000 0.8284 0.5601
vn 0.0006 0.8279 0.5609
vn 0.0000 0.8281 0.5605
s off
f 95/1/1 121/2/1 168/3/1
f 171/4/2 119/5/2 129/6/2
f 97/7/3 120/8/3 94/9/3
f 175/10/4 122/11/4 98/12/4
f 85/13/5 117/14/5 174/15/5
f 81/16/6 118/17/6 84/18/6
f 169/19/7 6/20/7 172/21/7
f 128/22/8 123/23/8 82/24/8
f 150/25/9 76/26/9 100/27/9
f 109/28/10 154/29/10 151/30/10
f 159/31/11 90/32/11 187/33/11
f 101/34/12 78/35/12 177/36/12
f 178/37/13 103/38/13 106/39/13
f 156/40/14 89/41/14 160/42/14
f 165/43/13 67/44/13 220/45/13
f 212/46/15 209/47/16 202/48/16
f 114/49/17 25/50/17 26/51/17
f 155/52/18 131/53/18 77/54/18
f 192/55/19 79/56/19 20/57/19
f 31/58/20 191/59/20 32/60/20
f 18/61/21 73/62/21 74/63/21
f 210/64/9 201/65/9 70/66/9
f 208/67/22 180/68/22 206/69/22
f 181/70/11 133/71/11 207/72/11
f 93/73/23 71/74/23 72/75/23
f 33/76/24 127/77/24 24/78/24
f 83/79/25 110/80/25 130/81/25
f 136/82/26 157/83/27 107/84/27
f 66/85/12 211/86/12 69/87/12
f 147/88/28 184/89/28 135/90/28
f 132/91/14 146/92/14 134/93/14
f 194/94/29 139/95/29 197/96/29
f 142/97/30 195/98/30 213/99/31
f 137/100/32 198/101/33 36/102/33
f 53/103/34 29/104/35 11/105/36
f 40/106/29 163/107/29 204/108/29
f 216/109/13 42/110/13 166/111/13
f 41/112/13 223/113/13 186/114/13
f 219/115/13 185/116/13 222/117/13
f 226/118/22 188/119/22 232/120/22
f 234/121/22 7/122/22 92/123/22
f 115/124/22 235/125/22 34/126/22
f 112/127/22 228/128/22 35/129/22
f 224/130/25 233/131/25 221/132/25
f 58/133/37 236/134/37 167/135/37
f 64/136/29 218/137/29 60/138/29
f 61/139/38 63/140/38 59/141/38
f 2/142/25 152/143/25 173/144/25
f 12/145/25 102/146/25 170/147/25
f 179/148/25 1/149/25 10/150/25
f 15/151/25 108/152/25 99/153/25
f 158/154/25 28/155/25 9/156/25
f 3/157/25 161/158/25 86/159/25
f 5/160/25 190/161/25 4/162/25
f 55/163/25 54/164/25 49/165/25
f 145/166/39 22/167/39 140/168/39
f 150/25/9 153/169/9 76/26/9
f 109/28/10 113/170/10 154/29/10
f 159/31/11 87/171/11 90/32/11
f 101/34/12 75/172/12 78/35/12
f 178/37/13 80/173/13 103/38/13
f 156/40/14 125/174/14 89/41/14
f 165/43/13 162/175/13 67/44/13
f 212/46/40 193/176/41 183/177/41
f 202/48/42 199/178/42 214/179/43
f 199/178/44 196/180/44 214/179/45
f 212/46/46 183/177/47 209/47/47
f 202/48/48 214/179/49 212/46/50
f 114/49/17 91/181/17 25/50/17
f 155/52/18 27/182/18 131/53/18
f 192/55/19 105/183/19 79/56/19
f 31/58/20 19/184/20 191/59/20
f 18/61/21 116/185/21 73/62/21
f 210/64/9 200/186/9 201/65/9
f 208/67/22 182/187/22 180/68/22
f 181/70/11 149/188/11 133/71/11
f 93/73/23 88/189/23 71/74/23
f 33/76/24 124/190/24 127/77/24
f 83/79/25 189/191/25 110/80/25
f 136/82/51 138/192/52 126/193/52
f 107/84/53 104/194/53 141/195/54
f 104/194/55 143/196/55 141/195/56
f 136/82/57 126/193/58 157/83/58
f 107/84/59 141/195/60 136/82/61
f 66/85/12 164/197/12 211/86/12
f 147/88/28 203/198/28 184/89/28
f 132/91/14 148/199/14 146/92/14
f 194/94/29 144/200/29 139/95/29
f 142/97/62 37/201/63 195/98/63
f 137/100/64 215/202/65 198/101/66
f 53/103/34 46/203/67 29/104/68
f 204/108/29 48/204/29 40/106/29
f 45/205/29 44/206/29 39/207/29
f 30/208/29 39/207/29 44/206/29
f 40/106/29 47/209/29 43/210/29
f 43/210/29 163/107/29 40/106/29
f 48/204/29 45/205/29 39/207/29
f 39/207/29 40/106/29 48/204/29
f 216/109/13 205/211/13 42/110/13
f 41/112/13 217/212/13 223/113/13
f 219/115/13 68/213/13 185/116/13
f 226/118/22 111/214/22 188/119/22
f 234/121/22 231/215/22 7/122/22
f 115/124/22 229/216/22 235/125/22
f 112/127/22 225/217/22 228/128/22
f 224/130/25 227/218/25 233/131/25
f 58/133/37 62/219/37 236/134/37
f 64/136/29 230/220/29 218/137/29
f 61/139/38 65/221/38 63/140/38
f 2/142/25 17/222/25 152/143/25
f 12/145/25 13/223/25 102/146/25
f 179/148/25 96/224/25 1/149/25
f 15/151/25 14/225/25 108/152/25
f 158/154/25 176/226/25 28/155/25
f 3/157/25 16/227/25 161/158/25
f 5/160/25 8/228/25 190/161/25
f 49/165/25 57/229/25 56/230/25
f 56/230/25 50/231/25 55/163/25
f 55/163/25 51/232/25 54/164/25
f 54/164/25 52/233/25 49/165/25
f 49/165/25 56/230/25 55/163/25
f 145/166/69 38/234/69 21/235/69
f 21/235/70 22/167/70 145/166/70
f 23/236/71 140/168/71 22/167/71
