# Blender v2.78 (sub 0) OBJ File: 'mushroom.blend'
# www.blender.org
o Cylinder
v 0.000000 0.449291 -0.051190
v 0.036196 0.449291 -0.036196
v 0.036196 0.176131 -0.036196
v 0.036196 0.449291 -0.036196
v 0.051190 0.449291 0.000000
v 0.051190 0.176131 0.000000
v 0.051190 0.449291 0.000000
v 0.036196 0.449291 0.036196
v 0.036196 0.176131 0.036196
v 0.036196 0.449291 0.036196
v 0.000000 0.449291 0.051190
v 0.000000 0.176131 0.051190
v 0.000000 0.449291 0.051190
v -0.036196 0.449291 0.036196
v -0.036196 0.176131 0.036196
v -0.036196 0.449291 0.036196
v -0.051190 0.449291 0.000000
v -0.051190 0.176131 0.000000
v -0.036196 0.449291 -0.036196
v 0.000000 0.449291 -0.051190
v 0.000000 0.176131 -0.051190
v -0.051190 0.449291 0.000000
v -0.036196 0.449291 -0.036196
v -0.036196 0.176131 -0.036196
v -0.051190 0.176131 0.000000
v -0.036196 0.176131 -0.036196
v -0.048367 0.000000 -0.048367
v -0.036196 0.176131 -0.036196
v 0.000000 0.176131 -0.051190
v 0.000000 0.000000 -0.068401
v -0.048367 -0.000000 0.048367
v -0.036196 0.176131 0.036196
v -0.051190 0.176131 0.000000
v 0.000000 0.176131 0.051190
v -0.036196 0.176131 0.036196
v -0.048367 -0.000000 0.048367
v 0.036196 0.176131 0.036196
v 0.000000 0.176131 0.051190
v 0.000000 -0.000000 0.068401
v 0.051190 0.176131 0.000000
v 0.036196 0.176131 0.036196
v 0.048367 -0.000000 0.048367
v 0.036196 0.176131 -0.036196
v 0.051190 0.176131 0.000000
v 0.068401 0.000000 0.000000
v 0.000000 0.176131 -0.051190
v 0.036196 0.176131 -0.036196
v 0.048367 0.000000 -0.048367
v 0.187775 0.406453 0.258449
v 0.036196 0.449291 0.036196
v 0.303826 0.406453 0.098717
v 0.187775 0.406453 -0.258449
v 0.000000 0.449291 -0.051190
v 0.000000 0.406453 -0.319461
v -0.303826 0.406453 0.098717
v -0.051190 0.449291 0.000000
v -0.036196 0.449291 0.036196
v 0.000000 0.406453 0.319461
v 0.000000 0.449291 0.051190
v 0.187775 0.406453 0.258449
v -0.303826 0.406453 0.098717
v -0.303826 0.406453 -0.098717
v -0.051190 0.449291 0.000000
v 0.036196 0.449291 -0.036196
v 0.000000 0.449291 -0.051190
v 0.187775 0.406453 -0.258449
v -0.303826 0.406453 -0.098717
v -0.036196 0.449291 -0.036196
v -0.051190 0.449291 0.000000
v 0.102093 0.553648 0.314215
v 0.254206 0.582651 0.184690
v 0.060008 0.702670 0.184690
v -0.267288 0.553648 0.194194
v -0.097099 0.582652 0.298836
v -0.157107 0.702670 0.114144
v -0.267288 0.553648 -0.194194
v -0.314215 0.582651 0.000000
v -0.157107 0.702670 -0.114143
v 0.102093 0.553648 -0.314215
v -0.097099 0.582652 -0.298835
v 0.060008 0.702670 -0.184689
v 0.330386 0.553647 0.000000
v 0.254206 0.582651 -0.184690
v 0.194196 0.702669 0.000000
v 0.194196 0.702669 0.000000
v 0.060008 0.702670 -0.184689
v 0.000000 0.757836 0.000000
v 0.194196 0.702669 0.000000
v 0.254206 0.582651 -0.184690
v 0.060008 0.702670 -0.184689
v 0.254206 0.582651 -0.184690
v 0.102093 0.553648 -0.314215
v 0.060008 0.702670 -0.184689
v 0.060008 0.702670 -0.184689
v -0.157107 0.702670 -0.114143
v 0.000000 0.757836 0.000000
v 0.060008 0.702670 -0.184689
v -0.097099 0.582652 -0.298835
v -0.157107 0.702670 -0.114143
v -0.097099 0.582652 -0.298835
v -0.267288 0.553648 -0.194194
v -0.157107 0.702670 -0.114143
v -0.157107 0.702670 -0.114143
v -0.157107 0.702670 0.114144
v 0.000000 0.757836 0.000000
v -0.157107 0.702670 -0.114143
v -0.314215 0.582651 0.000000
v -0.157107 0.702670 0.114144
v -0.314215 0.582651 0.000000
v -0.267288 0.553648 0.194194
v -0.157107 0.702670 0.114144
v -0.157107 0.702670 0.114144
v 0.060008 0.702670 0.184690
v 0.000000 0.757836 0.000000
v -0.157107 0.702670 0.114144
v -0.097099 0.582652 0.298836
v 0.060008 0.702670 0.184690
v -0.097099 0.582652 0.298836
v 0.102093 0.553648 0.314215
v 0.060008 0.702670 0.184690
v 0.060008 0.702670 0.184690
v 0.194196 0.702669 0.000000
v 0.000000 0.757836 0.000000
v 0.060008 0.702670 0.184690
v 0.254206 0.582651 0.184690
v 0.194196 0.702669 0.000000
v 0.254206 0.582651 0.184690
v 0.330386 0.553647 0.000000
v 0.194196 0.702669 0.000000
v 0.351305 0.367817 -0.114144
v 0.254206 0.582651 -0.184690
v 0.330386 0.553647 0.000000
v 0.351305 0.367817 -0.114144
v 0.217118 0.367817 -0.298837
v 0.254206 0.582651 -0.184690
v 0.217118 0.367817 -0.298837
v 0.102093 0.553648 -0.314215
v 0.254206 0.582651 -0.184690
v 0.000000 0.367817 -0.369383
v -0.097099 0.582652 -0.298835
v 0.102093 0.553648 -0.314215
v 0.000000 0.367817 -0.369383
v -0.217118 0.367817 -0.298837
v -0.097099 0.582652 -0.298835
v -0.217118 0.367817 -0.298837
v -0.267288 0.553648 -0.194194
v -0.097099 0.582652 -0.298835
v -0.351304 0.367817 -0.114144
v -0.314215 0.582651 0.000000
v -0.267288 0.553648 -0.194194
v -0.351304 0.367817 -0.114144
v -0.351304 0.367817 0.114144
v -0.314215 0.582651 0.000000
v -0.351304 0.367817 0.114144
v -0.267288 0.553648 0.194194
v -0.314215 0.582651 0.000000
v -0.217118 0.367817 0.298837
v -0.097099 0.582652 0.298836
v -0.267288 0.553648 0.194194
v -0.217118 0.367817 0.298837
v 0.000000 0.367817 0.369383
v -0.097099 0.582652 0.298836
v 0.000000 0.367817 0.369383
v 0.102093 0.553648 0.314215
v -0.097099 0.582652 0.298836
v 0.217118 0.367817 0.298837
v 0.254206 0.582651 0.184690
v 0.102093 0.553648 0.314215
v 0.217118 0.367817 0.298837
v 0.351305 0.367817 0.114144
v 0.254206 0.582651 0.184690
v 0.351305 0.367817 0.114144
v 0.330386 0.553647 0.000000
v 0.254206 0.582651 0.184690
v 0.217118 0.367817 -0.298837
v 0.000000 0.367817 -0.369383
v 0.102093 0.553648 -0.314215
v 0.187775 0.406453 -0.258449
v 0.000000 0.406453 -0.319461
v 0.000000 0.367817 -0.369383
v 0.036196 0.449291 0.036196
v 0.051190 0.449291 0.000000
v 0.303826 0.406453 0.098717
v -0.217118 0.367817 -0.298837
v -0.351304 0.367817 -0.114144
v -0.267288 0.553648 -0.194194
v 0.000000 0.406453 -0.319461
v -0.187774 0.406453 -0.258449
v -0.217118 0.367817 -0.298837
v -0.187774 0.406453 0.258449
v -0.303826 0.406453 0.098717
v -0.036196 0.449291 0.036196
v -0.351304 0.367817 0.114144
v -0.217118 0.367817 0.298837
v -0.267288 0.553648 0.194194
v -0.187774 0.406453 -0.258449
v -0.303826 0.406453 -0.098717
v -0.351304 0.367817 -0.114144
v 0.303826 0.406453 0.098717
v 0.051190 0.449291 0.000000
v 0.303826 0.406453 -0.098717
v 0.000000 0.367817 0.369383
v 0.217118 0.367817 0.298837
v 0.102093 0.553648 0.314215
v 0.000000 0.367817 0.369383
v 0.000000 0.406453 0.319461
v 0.187775 0.406453 0.258449
v 0.351305 0.367817 0.114144
v 0.351305 0.367817 -0.114144
v 0.330386 0.553647 0.000000
v -0.187774 0.406453 0.258449
v 0.000000 0.406453 0.319461
v 0.000000 0.367817 0.369383
v -0.187774 0.406453 -0.258449
v -0.036196 0.449291 -0.036196
v -0.303826 0.406453 -0.098717
v -0.187774 0.406453 0.258449
v -0.036196 0.449291 0.036196
v 0.000000 0.449291 0.051190
v -0.303826 0.406453 0.098717
v -0.187774 0.406453 0.258449
v -0.217118 0.367817 0.298837
v 0.051190 0.449291 0.000000
v 0.036196 0.449291 -0.036196
v 0.303826 0.406453 -0.098717
v 0.000000 0.449291 -0.051190
v -0.036196 0.449291 -0.036196
v -0.187774 0.406453 -0.258449
v -0.303826 0.406453 -0.098717
v -0.303826 0.406453 0.098717
v -0.351304 0.367817 0.114144
v 0.303826 0.406453 -0.098717
v 0.036196 0.449291 -0.036196
v 0.187775 0.406453 -0.258449
v 0.000000 0.406453 0.319461
v -0.187774 0.406453 0.258449
v 0.000000 0.449291 0.051190
v 0.303826 0.406453 -0.098717
v 0.187775 0.406453 -0.258449
v 0.217118 0.367817 -0.298837
v 0.000000 0.406453 -0.319461
v 0.000000 0.449291 -0.051190
v -0.187774 0.406453 -0.258449
v 0.000000 0.449291 0.051190
v 0.036196 0.449291 0.036196
v 0.187775 0.406453 0.258449
v 0.217118 0.367817 0.298837
v 0.187775 0.406453 0.258449
v 0.303826 0.406453 0.098717
v 0.303826 0.406453 0.098717
v 0.303826 0.406453 -0.098717
v 0.351305 0.367817 -0.114144
v 0.000000 0.176131 -0.051190
v 0.000000 0.449291 -0.051190
v 0.036196 0.176131 -0.036196
v 0.036196 0.176131 -0.036196
v 0.036196 0.449291 -0.036196
v 0.051190 0.176131 0.000000
v 0.051190 0.176131 0.000000
v 0.051190 0.449291 0.000000
v 0.036196 0.176131 0.036196
v 0.036196 0.176131 0.036196
v 0.036196 0.449291 0.036196
v 0.000000 0.176131 0.051190
v 0.000000 0.176131 0.051190
v 0.000000 0.449291 0.051190
v -0.036196 0.176131 0.036196
v -0.036196 0.176131 0.036196
v -0.036196 0.449291 0.036196
v -0.051190 0.176131 0.000000
v -0.036196 0.176131 -0.036196
v -0.036196 0.449291 -0.036196
v 0.000000 0.176131 -0.051190
v -0.051190 0.176131 0.000000
v -0.051190 0.449291 0.000000
v -0.036196 0.176131 -0.036196
v -0.068401 0.000000 0.000000
v -0.051190 0.176131 0.000000
v -0.048367 0.000000 -0.048367
v -0.048367 0.000000 -0.048367
v -0.036196 0.176131 -0.036196
v 0.000000 0.000000 -0.068401
v -0.068401 0.000000 0.000000
v -0.048367 -0.000000 0.048367
v -0.051190 0.176131 0.000000
v 0.000000 -0.000000 0.068401
v 0.000000 0.176131 0.051190
v -0.048367 -0.000000 0.048367
v 0.048367 -0.000000 0.048367
v 0.036196 0.176131 0.036196
v 0.000000 -0.000000 0.068401
v 0.068401 0.000000 0.000000
v 0.051190 0.176131 0.000000
v 0.048367 -0.000000 0.048367
v 0.048367 0.000000 -0.048367
v 0.036196 0.176131 -0.036196
v 0.068401 0.000000 0.000000
v 0.000000 0.000000 -0.068401
v 0.000000 0.176131 -0.051190
v 0.048367 0.000000 -0.048367
v 0.217118 0.367817 -0.298837
v 0.187775 0.406453 -0.258449
v 0.000000 0.367817 -0.369383
v 0.000000 0.367817 -0.369383
v 0.000000 0.406453 -0.319461
v -0.217118 0.367817 -0.298837
v -0.217118 0.367817 -0.298837
v -0.187774 0.406453 -0.258449
v -0.351304 0.367817 -0.114144
v 0.217118 0.367817 0.298837
v 0.000000 0.367817 0.369383
v 0.187775 0.406453 0.258449
v -0.217118 0.367817 0.298837
v -0.187774 0.406453 0.258449
v 0.000000 0.367817 0.369383
v -0.351304 0.367817 0.114144
v -0.303826 0.406453 0.098717
v -0.217118 0.367817 0.298837
v -0.351304 0.367817 -0.114144
v -0.303826 0.406453 -0.098717
v -0.351304 0.367817 0.114144
v 0.351305 0.367817 -0.114144
v 0.303826 0.406453 -0.098717
v 0.217118 0.367817 -0.298837
v 0.351305 0.367817 0.114144
v 0.217118 0.367817 0.298837
v 0.303826 0.406453 0.098717
v 0.351305 0.367817 0.114144
v 0.303826 0.406453 0.098717
v 0.351305 0.367817 -0.114144
vt 0.0409 0.7351
vt 0.0316 0.7338
vt 0.0409 0.6699
vt 0.4219 0.8192
vt 0.4153 0.8192
vt 0.4183 0.7548
vt 0.0732 0.8256
vt 0.0666 0.8247
vt 0.0732 0.7605
vt 0.3139 0.8464
vt 0.3232 0.8464
vt 0.3232 0.9108
vt 0.0382 0.9163
vt 0.0316 0.9153
vt 0.0382 0.8512
vt 0.0409 0.8257
vt 0.0316 0.8244
vt 0.0409 0.7606
vt 0.3904 0.7292
vt 0.3839 0.7283
vt 0.3904 0.6641
vt 0.4231 0.9108
vt 0.4165 0.9108
vt 0.4194 0.8464
vt 0.3526 0.9789
vt 0.3461 0.9776
vt 0.3526 0.9363
vt 0.0381 0.9841
vt 0.0316 0.9831
vt 0.0381 0.9418
vt 0.2849 0.9695
vt 0.2758 0.9287
vt 0.2849 0.9264
vt 0.0732 0.9841
vt 0.0666 0.9830
vt 0.0732 0.9417
vt 0.1800 0.9758
vt 0.1709 0.9735
vt 0.1800 0.9327
vt 0.4371 0.6207
vt 0.4306 0.6196
vt 0.4371 0.5784
vt 0.3204 0.9789
vt 0.3139 0.9776
vt 0.3204 0.9363
vt 0.2501 0.9695
vt 0.2410 0.9672
vt 0.2501 0.9264
vt 0.2153 0.6641
vt 0.2153 0.7277
vt 0.1709 0.6799
vt 0.1004 0.7162
vt 0.1451 0.6672
vt 0.1451 0.7306
vt 0.1096 0.9106
vt 0.1004 0.8472
vt 0.1096 0.8457
vt 0.1451 0.5784
vt 0.1451 0.6417
vt 0.1004 0.5928
vt 0.2909 0.6380
vt 0.2438 0.6380
vt 0.2673 0.5784
vt 0.3485 0.7579
vt 0.3573 0.7548
vt 0.3573 0.8208
vt 0.2151 0.8423
vt 0.2151 0.9072
vt 0.2059 0.9057
vt 0.8343 0.6365
vt 0.8522 0.6216
vt 0.8522 0.6557
vt 0.7240 0.9036
vt 0.7032 0.8874
vt 0.7240 0.8746
vt 0.8574 0.7602
vt 0.8324 0.7447
vt 0.8574 0.7324
vt 0.8185 0.5652
vt 0.8185 0.5948
vt 0.7920 0.5735
vt 0.6159 0.8539
vt 0.6361 0.8340
vt 0.6361 0.8677
vt 0.8179 0.7841
vt 0.8179 0.8151
vt 0.7933 0.7976
vt 0.7772 0.6526
vt 0.7510 0.6309
vt 0.7772 0.6216
vt 0.7702 0.8644
vt 0.7487 0.8443
vt 0.7702 0.8314
vt 0.5993 0.8165
vt 0.5710 0.7969
vt 0.5993 0.7863
vt 0.6869 0.7324
vt 0.6869 0.7664
vt 0.6573 0.7498
vt 0.7221 0.8300
vt 0.7309 0.8583
vt 0.7032 0.8583
vt 0.8181 0.6216
vt 0.8181 0.6526
vt 0.7934 0.6390
vt 0.5531 0.8212
vt 0.5270 0.8118
vt 0.5531 0.7902
vt 0.8334 0.8476
vt 0.8580 0.8313
vt 0.8580 0.8583
vt 0.8400 0.6770
vt 0.8579 0.7048
vt 0.8357 0.7048
vt 0.5955 0.8623
vt 0.5710 0.8623
vt 0.5803 0.8328
vt 0.8172 0.8313
vt 0.8172 0.8618
vt 0.7933 0.8509
vt 0.8347 0.5930
vt 0.8527 0.5652
vt 0.8569 0.5930
vt 0.8544 0.9025
vt 0.8334 0.9025
vt 0.8523 0.8746
vt 0.5472 0.8711
vt 0.5270 0.8512
vt 0.5472 0.8374
vt 0.7600 0.7841
vt 0.7770 0.8151
vt 0.7487 0.8151
vt 0.6011 0.7700
vt 0.5710 0.7700
vt 0.5859 0.7371
vt 0.7338 0.6012
vt 0.7085 0.5802
vt 0.7338 0.5652
vt 0.7757 0.5981
vt 0.7501 0.5738
vt 0.7757 0.5652
vt 0.6410 0.7702
vt 0.6174 0.7607
vt 0.6410 0.7348
vt 0.8584 0.7841
vt 0.8584 0.8110
vt 0.8342 0.7940
vt 0.5512 0.7369
vt 0.5512 0.7739
vt 0.5270 0.7572
vt 0.6464 0.6022
vt 0.6159 0.5862
vt 0.6464 0.5652
vt 0.6857 0.7827
vt 0.6857 0.8143
vt 0.6573 0.8065
vt 0.7957 0.7324
vt 0.8161 0.7631
vt 0.7898 0.7631
vt 0.6922 0.6020
vt 0.6626 0.5870
vt 0.6922 0.5652
vt 0.7242 0.6216
vt 0.7347 0.6526
vt 0.7043 0.6526
vt 0.6799 0.8628
vt 0.6573 0.8360
vt 0.6799 0.8306
vt 0.7753 0.7098
vt 0.7474 0.7098
vt 0.7606 0.6770
vt 0.7735 0.7678
vt 0.7487 0.7461
vt 0.7735 0.7324
vt 0.7032 0.7501
vt 0.7324 0.7324
vt 0.7324 0.7653
vt 0.6862 0.9692
vt 0.6790 0.9403
vt 0.6862 0.9361
vt 0.1801 0.9072
vt 0.1709 0.9057
vt 0.1801 0.8423
vt 0.8195 0.7052
vt 0.7916 0.7052
vt 0.8059 0.6770
vt 0.8813 0.7676
vt 0.8742 0.7388
vt 0.8813 0.7351
vt 0.2881 0.7240
vt 0.2410 0.7240
vt 0.2665 0.6641
vt 0.6159 0.7986
vt 0.6410 0.7864
vt 0.6410 0.8177
vt 0.9426 0.9065
vt 0.9357 0.8778
vt 0.9426 0.8746
vt 0.1004 0.8032
vt 0.1442 0.7561
vt 0.1442 0.8202
vt 0.7032 0.7972
vt 0.7314 0.7816
vt 0.7314 0.8138
vt 0.9483 0.8161
vt 0.9424 0.8131
vt 0.9483 0.7841
vt 0.7019 0.6949
vt 0.7312 0.6770
vt 0.7312 0.7100
vt 0.7770 0.9712
vt 0.7713 0.9420
vt 0.7770 0.9385
vt 0.2410 0.8093
vt 0.2627 0.7495
vt 0.2881 0.8093
vt 0.2844 0.9009
vt 0.2756 0.8379
vt 0.2844 0.8348
vt 0.9480 0.7091
vt 0.9421 0.6800
vt 0.9480 0.6770
vt 0.3489 0.6657
vt 0.3581 0.6641
vt 0.3581 0.7291
vt 0.2498 0.9009
vt 0.2410 0.8978
vt 0.2498 0.8348
vt 0.9420 0.7277
vt 0.9484 0.7565
vt 0.9420 0.7594
vt 0.1709 0.8010
vt 0.2153 0.7532
vt 0.2153 0.8168
vt 0.0316 0.5975
vt 0.0746 0.5784
vt 0.0746 0.6444
vt 0.6628 0.9702
vt 0.6558 0.9414
vt 0.6628 0.9369
vt 0.1709 0.6386
vt 0.1907 0.5784
vt 0.2180 0.6386
vt 0.3227 0.8208
vt 0.3139 0.8177
vt 0.3227 0.7548
vt 0.9444 0.9640
vt 0.9380 0.9610
vt 0.9444 0.9323
vt 0.5335 0.9786
vt 0.5270 0.9498
vt 0.5335 0.9452
vt 0.1447 0.8457
vt 0.1447 0.9102
vt 0.1353 0.8457
vt 0.3841 0.9108
vt 0.3870 0.8464
vt 0.3907 0.9108
vt 0.0666 0.7341
vt 0.0732 0.6699
vt 0.0732 0.7350
vt 0.3139 0.7280
vt 0.3231 0.6641
vt 0.3231 0.7293
vt 0.0666 0.9153
vt 0.0732 0.8511
vt 0.0732 0.9162
vt 0.3490 0.9108
vt 0.3490 0.8464
vt 0.3583 0.9108
vt 0.3830 0.8189
vt 0.3896 0.7548
vt 0.3896 0.8199
vt 0.4162 0.7285
vt 0.4191 0.6641
vt 0.4228 0.7285
vt 0.3929 0.9363
vt 0.3929 0.9780
vt 0.3841 0.9363
vt 0.1442 0.9357
vt 0.1442 0.9775
vt 0.1353 0.9361
vt 0.3545 0.5815
vt 0.3666 0.5784
vt 0.3666 0.6215
vt 0.2151 0.9327
vt 0.2151 0.9745
vt 0.2063 0.9331
vt 0.3924 0.6201
vt 0.3939 0.5784
vt 0.4048 0.6201
vt 0.4187 0.9780
vt 0.4206 0.9363
vt 0.4276 0.9780
vt 0.1092 0.9362
vt 0.1092 0.9779
vt 0.1004 0.9362
vt 0.3166 0.6184
vt 0.3287 0.5784
vt 0.3287 0.6215
vt 0.9259 0.7114
vt 0.9179 0.7091
vt 0.9259 0.6770
vt 0.9261 0.8184
vt 0.9184 0.8156
vt 0.9261 0.7841
vt 0.7324 0.9540
vt 0.7250 0.9509
vt 0.7324 0.9199
vt 0.6223 0.9417
vt 0.6223 0.9760
vt 0.6159 0.9446
vt 0.9400 0.6475
vt 0.9337 0.6452
vt 0.9400 0.6131
vt 0.7551 0.9728
vt 0.7487 0.9699
vt 0.7551 0.9385
vt 0.5779 0.9701
vt 0.5710 0.9670
vt 0.5779 0.9361
vt 0.9257 0.7620
vt 0.9179 0.7601
vt 0.9257 0.7277
vt 0.8002 0.9356
vt 0.8002 0.9696
vt 0.7933 0.9387
vt 0.9142 0.9324
vt 0.9218 0.9323
vt 0.9218 0.9657
vn 0.3827 0.0000 -0.9239
vn 0.9239 0.0000 -0.3827
vn 0.9239 -0.0000 0.3827
vn 0.3827 -0.0000 0.9239
vn -0.3827 -0.0000 0.9239
vn -0.9239 -0.0000 0.3827
vn -0.3827 0.0000 -0.9239
vn -0.9239 0.0000 -0.3827
vn -0.9201 0.0899 -0.3811
vn -0.3811 0.0899 -0.9201
vn -0.9201 0.0899 0.3811
vn -0.3811 0.0899 0.9201
vn 0.3811 0.0899 0.9201
vn 0.9201 0.0899 0.3811
vn 0.9201 0.0899 -0.3811
vn 0.3811 0.0899 -0.9201
vn -0.1349 -0.9860 -0.0980
vn -0.0512 -0.9862 0.1575
vn 0.1442 -0.9878 -0.0597
vn -0.0512 -0.9862 -0.1575
vn 0.1672 -0.9859 -0.0000
vn -0.0614 -0.9870 0.1483
vn 0.1442 -0.9878 0.0597
vn 0.4089 0.6617 0.6284
vn -0.4713 0.6617 0.5831
vn -0.7002 0.6617 -0.2680
vn 0.0385 0.6617 -0.7488
vn 0.7240 0.6617 -0.1947
vn 0.2680 0.9435 -0.1947
vn 0.4911 0.7947 -0.3568
vn 0.4089 0.6617 -0.6284
vn -0.1024 0.9435 -0.3151
vn -0.1876 0.7947 -0.5773
vn -0.4713 0.6617 -0.5831
vn -0.3313 0.9435 0.0000
vn -0.6071 0.7947 0.0000
vn -0.7002 0.6617 0.2680
vn -0.1024 0.9435 0.3151
vn -0.1876 0.7947 0.5773
vn 0.0385 0.6617 0.7488
vn 0.2680 0.9435 0.1947
vn 0.4911 0.7947 0.3568
vn 0.7240 0.6617 0.1947
vn 0.8977 0.2996 -0.3232
vn 0.7972 0.1701 -0.5792
vn 0.5848 0.2996 -0.7538
vn -0.0300 0.2996 -0.9536
vn -0.3045 0.1701 -0.9372
vn -0.5362 0.2996 -0.7891
vn -0.9162 0.2996 -0.2661
vn -0.9854 0.1701 0.0000
vn -0.9162 0.2996 0.2661
vn -0.5362 0.2996 0.7891
vn -0.3045 0.1701 0.9372
vn -0.0300 0.2996 0.9536
vn 0.5848 0.2996 0.7538
vn 0.7972 0.1701 0.5792
vn 0.8977 0.2996 0.3232
vn 0.3071 0.1119 -0.9451
vn -0.1950 -0.7756 0.6003
vn -0.1442 -0.9878 -0.0597
vn -0.8039 0.1119 -0.5841
vn 0.1950 -0.7756 0.6003
vn 0.1349 -0.9860 -0.0980
vn -0.8039 0.1119 0.5841
vn 0.5106 -0.7756 0.3710
vn -0.1672 -0.9859 -0.0000
vn 0.3071 0.1119 0.9451
vn -0.1950 -0.7756 -0.6003
vn 0.9937 0.1119 0.0000
vn 0.1950 -0.7756 -0.6003
vn 0.1349 -0.9860 0.0980
vn 0.0614 -0.9870 -0.1483
vn 0.5106 -0.7756 -0.3710
vn -0.1442 -0.9878 0.0597
vn 0.0614 -0.9870 0.1483
vn 0.6312 -0.7756 -0.0000
vn -0.1349 -0.9860 0.0980
vn 0.0512 -0.9862 -0.1575
vn -0.5106 -0.7756 0.3710
vn 0.0512 -0.9862 0.1575
vn -0.0614 -0.9870 -0.1483
vn -0.5106 -0.7756 -0.3710
vn -0.6312 -0.7756 0.0000
s 1
f 1/1/1 2/2/1 3/3/1
f 4/4/2 5/5/2 6/6/2
f 7/7/3 8/8/3 9/9/3
f 10/10/4 11/11/4 12/12/4
f 13/13/5 14/14/5 15/15/5
f 16/16/6 17/17/6 18/18/6
f 19/19/7 20/20/7 21/21/7
f 22/22/8 23/23/8 24/24/8
f 25/25/9 26/26/9 27/27/9
f 28/28/10 29/29/10 30/30/10
f 31/31/11 32/32/11 33/33/11
f 34/34/12 35/35/12 36/36/12
f 37/37/13 38/38/13 39/39/13
f 40/40/14 41/41/14 42/42/14
f 43/43/15 44/44/15 45/45/15
f 46/46/16 47/47/16 48/48/16
f 49/49/17 50/50/17 51/51/17
f 52/52/18 53/53/18 54/54/18
f 55/55/19 56/56/19 57/57/19
f 58/58/20 59/59/20 60/60/20
f 61/61/21 62/62/21 63/63/21
f 64/64/22 65/65/22 66/66/22
f 67/67/23 68/68/23 69/69/23
f 70/70/24 71/71/24 72/72/24
f 73/73/25 74/74/25 75/75/25
f 76/76/26 77/77/26 78/78/26
f 79/79/27 80/80/27 81/81/27
f 82/82/28 83/83/28 84/84/28
f 85/85/29 86/86/29 87/87/29
f 88/88/30 89/89/30 90/90/30
f 91/91/31 92/92/31 93/93/31
f 94/94/32 95/95/32 96/96/32
f 97/97/33 98/98/33 99/99/33
f 100/100/34 101/101/34 102/102/34
f 103/103/35 104/104/35 105/105/35
f 106/106/36 107/107/36 108/108/36
f 109/109/37 110/110/37 111/111/37
f 112/112/38 113/113/38 114/114/38
f 115/115/39 116/116/39 117/117/39
f 118/118/40 119/119/40 120/120/40
f 121/121/41 122/122/41 123/123/41
f 124/124/42 125/125/42 126/126/42
f 127/127/43 128/128/43 129/129/43
f 130/130/44 131/131/44 132/132/44
f 133/133/45 134/134/45 135/135/45
f 136/136/46 137/137/46 138/138/46
f 139/139/47 140/140/47 141/141/47
f 142/142/48 143/143/48 144/144/48
f 145/145/49 146/146/49 147/147/49
f 148/148/50 149/149/50 150/150/50
f 151/151/51 152/152/51 153/153/51
f 154/154/52 155/155/52 156/156/52
f 157/157/53 158/158/53 159/159/53
f 160/160/54 161/161/54 162/162/54
f 163/163/55 164/164/55 165/165/55
f 166/166/56 167/167/56 168/168/56
f 169/169/57 170/170/57 171/171/57
f 172/172/58 173/173/58 174/174/58
f 175/175/59 176/176/59 177/177/59
f 178/178/60 179/179/60 180/180/60
f 181/181/61 182/182/61 183/183/61
f 184/184/62 185/185/62 186/186/62
f 187/187/63 188/188/63 189/189/63
f 190/190/64 191/191/64 192/192/64
f 193/193/65 194/194/65 195/195/65
f 196/196/66 197/197/66 198/198/66
f 199/199/67 200/200/67 201/201/67
f 202/202/68 203/203/68 204/204/68
f 205/205/69 206/206/69 207/207/69
f 208/208/70 209/209/70 210/210/70
f 211/211/71 212/212/71 213/213/71
f 214/214/72 215/215/72 216/216/72
f 217/217/73 218/218/73 219/219/73
f 220/220/74 221/221/74 222/222/74
f 223/223/75 224/224/75 225/225/75
f 226/226/76 227/227/76 228/228/76
f 229/229/77 230/230/77 231/231/77
f 232/232/78 233/233/78 234/234/78
f 235/235/79 236/236/79 237/237/79
f 238/238/80 239/239/80 240/240/80
f 241/241/81 242/242/81 243/243/81
f 244/244/82 245/245/82 246/246/82
f 247/247/83 248/248/83 249/249/83
f 250/250/84 251/251/84 252/252/84
f 253/253/1 254/254/1 255/255/1
f 256/256/2 257/257/2 258/258/2
f 259/259/3 260/260/3 261/261/3
f 262/262/4 263/263/4 264/264/4
f 265/265/5 266/266/5 267/267/5
f 268/268/6 269/269/6 270/270/6
f 271/271/7 272/272/7 273/273/7
f 274/274/8 275/275/8 276/276/8
f 277/277/9 278/278/9 279/279/9
f 280/280/10 281/281/10 282/282/10
f 283/283/11 284/284/11 285/285/11
f 286/286/12 287/287/12 288/288/12
f 289/289/13 290/290/13 291/291/13
f 292/292/14 293/293/14 294/294/14
f 295/295/15 296/296/15 297/297/15
f 298/298/16 299/299/16 300/300/16
f 301/301/60 302/302/60 303/303/60
f 304/304/63 305/305/63 306/306/63
f 307/307/66 308/308/66 309/309/66
f 310/310/69 311/311/69 312/312/69
f 313/313/71 314/314/71 315/315/71
f 316/316/74 317/317/74 318/318/74
f 319/319/77 320/320/77 321/321/77
f 322/322/80 323/323/80 324/324/80
f 325/325/83 326/326/83 327/327/83
f 328/328/84 329/329/84 330/330/84
