# Blender v2.79 (sub 0) OBJ File: ''
# www.blender.org
o Cube_Cube.001
v -0.324155 1.047561 0.213646
v -0.324155 2.174794 0.213646
v -0.324155 1.047561 -0.213646
v -0.324155 2.174794 -0.213646
v 0.324155 1.047561 0.213646
v 0.324155 2.174794 0.213646
v 0.324155 1.047561 -0.213646
v 0.324155 2.174794 -0.213646
v -0.206946 2.613294 0.213646
v -0.206946 2.241472 0.213646
v -0.206946 2.613294 -0.213646
v -0.206946 2.241472 -0.213646
v 0.206946 2.613294 0.213646
v 0.206946 2.241472 0.213646
v 0.206946 2.613294 -0.213646
v 0.206946 2.241472 -0.213646
v -0.592119 1.008780 0.121684
v -0.592119 2.136013 0.121684
v -0.592119 1.008780 -0.121684
v -0.592119 2.136013 -0.121684
v -0.401666 1.008780 0.121684
v -0.401666 2.136013 0.121684
v -0.401666 1.008780 -0.121684
v -0.401666 2.136013 -0.121684
v 0.401965 1.008780 0.121684
v 0.401965 2.136013 0.121684
v 0.401965 1.008780 -0.121684
v 0.401965 2.136013 -0.121684
v 0.592419 1.008780 0.121684
v 0.592419 2.136013 0.121684
v 0.592419 1.008780 -0.121684
v 0.592419 2.136013 -0.121684
v -0.275025 -0.139280 0.121684
v -0.275025 0.987954 0.121684
v -0.275025 -0.139280 -0.121684
v -0.275025 0.987954 -0.121684
v -0.084572 -0.139280 0.121684
v -0.084572 0.987954 0.121684
v -0.084572 -0.139280 -0.121684
v -0.084572 0.987954 -0.121684
v 0.091012 -0.139280 0.121684
v 0.091012 0.987954 0.121684
v 0.091012 -0.139280 -0.121684
v 0.091012 0.987954 -0.121684
v 0.281465 -0.139280 0.121684
v 0.281465 0.987954 0.121684
v 0.281465 -0.139280 -0.121684
v 0.281465 0.987954 -0.121684
v -0.324155 1.047561 -0.213646
v -0.324155 1.047561 -0.213646
v -0.324155 1.047561 0.213646
v -0.324155 1.047561 0.213646
v -0.324155 2.174794 0.213646
v -0.324155 2.174794 0.213646
v -0.324155 2.174794 -0.213646
v -0.324155 2.174794 -0.213646
v 0.324155 1.047561 -0.213646
v 0.324155 1.047561 -0.213646
v 0.324155 2.174794 -0.213646
v 0.324155 2.174794 -0.213646
v 0.324155 1.047561 0.213646
v 0.324155 1.047561 0.213646
v 0.324155 2.174794 0.213646
v 0.324155 2.174794 0.213646
v -0.206946 2.613294 -0.213646
v -0.206946 2.613294 -0.213646
v -0.206946 2.613294 0.213646
v -0.206946 2.613294 0.213646
v -0.206946 2.241472 0.213646
v -0.206946 2.241472 0.213646
v -0.206946 2.241472 -0.213646
v -0.206946 2.241472 -0.213646
v 0.206946 2.613294 -0.213646
v 0.206946 2.613294 -0.213646
v 0.206946 2.241472 -0.213646
v 0.206946 2.241472 -0.213646
v 0.206946 2.613294 0.213646
v 0.206946 2.613294 0.213646
v 0.206946 2.241472 0.213646
v 0.206946 2.241472 0.213646
v -0.592119 1.008780 -0.121684
v -0.592119 1.008780 -0.121684
v -0.592119 1.008780 0.121684
v -0.592119 1.008780 0.121684
v -0.592119 2.136013 0.121684
v -0.592119 2.136013 0.121684
v -0.592119 2.136013 -0.121684
v -0.592119 2.136013 -0.121684
v -0.401666 1.008780 -0.121684
v -0.401666 1.008780 -0.121684
v -0.401666 2.136013 -0.121684
v -0.401666 2.136013 -0.121684
v -0.401666 1.008780 0.121684
v -0.401666 1.008780 0.121684
v -0.401666 2.136013 0.121684
v -0.401666 2.136013 0.121684
v 0.401965 1.008780 -0.121684
v 0.401965 1.008780 -0.121684
v 0.401965 1.008780 0.121684
v 0.401965 1.008780 0.121684
v 0.401965 2.136013 0.121684
v 0.401965 2.136013 0.121684
v 0.401965 2.136013 -0.121684
v 0.401965 2.136013 -0.121684
v 0.592419 1.008780 -0.121684
v 0.592419 1.008780 -0.121684
v 0.592419 2.136013 -0.121684
v 0.592419 2.136013 -0.121684
v 0.592419 1.008780 0.121684
v 0.592419 1.008780 0.121684
v 0.592419 2.136013 0.121684
v 0.592419 2.136013 0.121684
v -0.275025 -0.139280 -0.121684
v -0.275025 -0.139280 -0.121684
v -0.275025 -0.139280 0.121684
v -0.275025 -0.139280 0.121684
v -0.275025 0.987954 0.121684
v -0.275025 0.987954 0.121684
v -0.275025 0.987954 -0.121684
v -0.275025 0.987954 -0.121684
v -0.084572 -0.139280 -0.121684
v -0.084572 -0.139280 -0.121684
v -0.084572 0.987954 -0.121684
v -0.084572 0.987954 -0.121684
v -0.084572 -0.139280 0.121684
v -0.084572 -0.139280 0.121684
v -0.084572 0.987954 0.121684
v -0.084572 0.987954 0.121684
v 0.091012 -0.139280 -0.121684
v 0.091012 -0.139280 -0.121684
v 0.091012 -0.139280 0.121684
v 0.091012 -0.139280 0.121684
v 0.091012 0.987954 0.121684
v 0.091012 0.987954 0.121684
v 0.091012 0.987954 -0.121684
v 0.091012 0.987954 -0.121684
v 0.281465 -0.139280 -0.121684
v 0.281465 -0.139280 -0.121684
v 0.281465 0.987954 -0.121684
v 0.281465 0.987954 -0.121684
v 0.281465 -0.139280 0.121684
v 0.281465 -0.139280 0.121684
v 0.281465 0.987954 0.121684
v 0.281465 0.987954 0.121684
vt 0.229092 0.475288
vt 0.458183 0.237644
vt 0.458183 0.475288
vt 0.000000 0.475288
vt 0.229092 0.237644
vt 0.229092 0.475288
vt 0.000000 0.237644
vt 0.229092 0.000000
vt 0.229092 0.237644
vt 0.229092 0.000000
vt 0.458183 0.237644
vt 0.229092 0.237644
vt 0.458183 0.237644
vt 0.687275 0.000000
vt 0.687275 0.237644
vt 0.229092 0.712932
vt 0.000000 0.475288
vt 0.229091 0.475288
vt 0.130481 0.712932
vt 0.206047 0.950576
vt 0.130481 0.950576
vt 0.820013 0.864648
vt 0.744446 0.712932
vt 0.820013 0.712932
vt 0.817755 0.000000
vt 0.893322 0.237644
vt 0.817755 0.237644
vt 0.895579 0.864648
vt 0.820013 0.712932
vt 0.895579 0.712932
vt 0.458183 0.237644
vt 0.604439 0.475288
vt 0.458183 0.475288
vt 0.375348 0.712932
vt 0.229092 0.475288
vt 0.375348 0.475288
vt 0.375348 0.475288
vt 0.505828 0.712932
vt 0.375348 0.712932
vt 0.744446 0.950576
vt 0.677146 0.712932
vt 0.744446 0.712932
vt 0.897270 0.712932
vt 0.766789 0.475288
vt 0.897270 0.475288
vt 0.542547 0.712932
vt 0.609846 0.950576
vt 0.542547 0.950576
vt 1.000000 0.237644
vt 0.932700 0.372996
vt 0.932700 0.237644
vt 0.897270 0.610640
vt 0.964570 0.475288
vt 0.964570 0.610640
vt 0.505828 0.475288
vt 0.636309 0.712932
vt 0.505828 0.712932
vt 0.206047 0.712932
vt 0.273347 0.950576
vt 0.206047 0.950576
vt 0.865400 0.475288
vt 0.734920 0.237644
vt 0.865400 0.237644
vt 0.273347 0.712932
vt 0.340647 0.950576
vt 0.273347 0.950576
vt 0.960622 0.000000
vt 0.893322 0.135352
vt 0.893322 0.000000
vt 0.811746 1.000000
vt 0.879046 0.864648
vt 0.879046 1.000000
vt 0.604439 0.237644
vt 0.734920 0.475288
vt 0.604439 0.475288
vt 0.475247 0.950576
vt 0.407947 0.712932
vt 0.475247 0.712932
vt 0.130481 0.950576
vt 0.000000 0.712932
vt 0.130481 0.712932
vt 0.340647 0.712932
vt 0.407947 0.950576
vt 0.340647 0.950576
vt 0.895579 0.848284
vt 0.962879 0.712932
vt 0.962879 0.848284
vt 0.811746 0.864648
vt 0.744446 1.000000
vt 0.744446 0.864648
vt 0.636309 0.475288
vt 0.766789 0.712932
vt 0.636309 0.712932
vt 0.475247 0.712932
vt 0.542547 0.950576
vt 0.475247 0.950576
vt 0.817755 0.237644
vt 0.687275 0.000000
vt 0.817755 0.000000
vt 0.609846 0.712932
vt 0.677146 0.950576
vt 0.609847 0.950576
vt 0.895579 0.983636
vt 0.962879 0.848284
vt 0.962879 0.983636
vt 0.932700 0.237644
vt 0.865400 0.372996
vt 0.865400 0.237644
vt 0.229092 0.237644
vt 0.000000 0.237644
vt 0.000000 0.000000
vt 0.458183 0.000000
vt 0.458183 0.000000
vt 0.000000 0.712932
vt 0.206047 0.712932
vt 0.744446 0.864648
vt 0.893322 0.000000
vt 0.820013 0.864648
vt 0.604439 0.237644
vt 0.229092 0.712932
vt 0.505828 0.475288
vt 0.677146 0.950576
vt 0.766789 0.712932
vt 0.609846 0.712932
vt 1.000000 0.372996
vt 0.897270 0.475288
vt 0.636309 0.475288
vt 0.273347 0.712932
vt 0.734920 0.475288
vt 0.340647 0.712932
vt 0.960622 0.135352
vt 0.811746 0.864648
vt 0.734920 0.237644
vt 0.407947 0.950576
vt 0.000000 0.950576
vt 0.407947 0.712932
vt 0.895579 0.712932
vt 0.811746 1.000000
vt 0.766789 0.475288
vt 0.542547 0.712932
vt 0.687275 0.237644
vt 0.677146 0.712932
vt 0.895579 0.848284
vt 0.932700 0.372996
vn -1.0000 0.0000 0.0000
vn 0.0000 0.0000 -1.0000
vn 1.0000 0.0000 0.0000
vn 0.0000 0.0000 1.0000
vn 0.0000 -1.0000 0.0000
vn 0.0000 1.0000 0.0000
s off
f 53/1/1 49/2/1 51/3/1
f 56/4/2 57/5/2 50/6/2
f 60/7/3 61/8/3 58/9/3
f 64/10/4 52/11/4 62/12/4
f 7/13/5 1/14/5 3/15/5
f 4/16/6 6/17/6 8/18/6
f 65/19/1 69/20/1 67/21/1
f 73/22/2 72/23/2 66/24/2
f 77/25/3 76/26/3 74/27/3
f 68/28/4 80/29/4 78/30/4
f 9/31/6 15/32/6 11/33/6
f 14/34/5 12/35/5 16/36/5
f 85/37/1 81/38/1 83/39/1
f 88/40/2 89/41/2 82/42/2
f 92/43/3 93/44/3 90/45/3
f 96/46/4 84/47/4 94/48/4
f 23/49/5 17/50/5 19/51/5
f 20/52/6 22/53/6 24/54/6
f 101/55/1 97/56/1 99/57/1
f 104/58/2 105/59/2 98/60/2
f 108/61/3 109/62/3 106/63/3
f 112/64/4 100/65/4 110/66/4
f 31/67/5 25/68/5 27/69/5
f 28/70/6 30/71/6 32/72/6
f 117/73/1 113/74/1 115/75/1
f 120/76/2 121/77/2 114/78/2
f 124/79/3 125/80/3 122/81/3
f 128/82/4 116/83/4 126/84/4
f 39/85/5 33/86/5 35/87/5
f 36/88/6 38/89/6 40/90/6
f 133/91/1 129/92/1 131/93/1
f 136/94/2 137/95/2 130/96/2
f 140/97/3 141/98/3 138/99/3
f 144/100/4 132/101/4 142/102/4
f 47/103/5 41/104/5 43/105/5
f 44/106/6 46/107/6 48/108/6
f 53/1/1 55/109/1 49/2/1
f 56/4/2 59/110/2 57/5/2
f 60/7/3 63/111/3 61/8/3
f 64/10/4 54/112/4 52/11/4
f 7/13/5 5/113/5 1/14/5
f 4/16/6 2/114/6 6/17/6
f 65/19/1 71/115/1 69/20/1
f 73/22/2 75/116/2 72/23/2
f 77/25/3 79/117/3 76/26/3
f 68/28/4 70/118/4 80/29/4
f 9/31/6 13/119/6 15/32/6
f 14/34/5 10/120/5 12/35/5
f 85/37/1 87/121/1 81/38/1
f 88/40/2 91/122/2 89/41/2
f 92/43/3 95/123/3 93/44/3
f 96/46/4 86/124/4 84/47/4
f 23/49/5 21/125/5 17/50/5
f 20/52/6 18/126/6 22/53/6
f 101/55/1 103/127/1 97/56/1
f 104/58/2 107/128/2 105/59/2
f 108/61/3 111/129/3 109/62/3
f 112/64/4 102/130/4 100/65/4
f 31/67/5 29/131/5 25/68/5
f 28/70/6 26/132/6 30/71/6
f 117/73/1 119/133/1 113/74/1
f 120/76/2 123/134/2 121/77/2
f 124/79/3 127/135/3 125/80/3
f 128/82/4 118/136/4 116/83/4
f 39/85/5 37/137/5 33/86/5
f 36/88/6 34/138/6 38/89/6
f 133/91/1 135/139/1 129/92/1
f 136/94/2 139/140/2 137/95/2
f 140/97/3 143/141/3 141/98/3
f 144/100/4 134/142/4 132/101/4
f 47/103/5 45/143/5 41/104/5
f 44/106/6 42/144/6 46/107/6
