# Blender v2.76 (sub 0) OBJ File: 'rock.blend'
# www.blender.org
o Icosphere
v 0.955295 -0.003223 0.533544
v -0.387339 -0.003223 0.858468
v -1.133684 -0.006828 -0.006944
v -0.387339 -0.003223 -0.842830
v 0.955295 -0.003223 -0.517907
v 0.354840 0.827702 0.858468
v -0.707713 0.821907 0.326459
v -0.616532 0.811256 -0.583595
v 0.354840 0.827702 -0.842830
v 1.229932 0.915763 0.036506
v -0.016249 1.380483 0.007819
v 0.336689 -0.003223 0.816830
v 1.144372 0.032765 0.019542
v -0.937006 -0.000730 0.442804
v -0.882971 -0.005866 -0.502315
v 0.336689 -0.003223 -0.801193
v 1.291097 0.439632 0.336100
v 1.291097 0.439632 -0.281926
v -0.016249 0.380483 1.007819
v 0.772935 0.380483 0.816835
v -1.054344 0.374197 0.172885
v -0.800190 0.384526 0.711401
v -0.634997 0.372848 -0.831357
v -0.996384 0.367852 -0.364828
v 0.772935 0.380483 -0.801198
v -0.016249 0.380483 -0.992181
v 0.937199 0.963501 0.526475
v -0.364750 0.909641 0.727615
v -0.729539 0.891673 -0.172753
v -0.290596 0.902594 -0.815103
v 0.937199 0.963501 -0.473518
v 0.201870 1.231137 0.507814
v 0.716842 1.284076 0.025065
v -0.366057 1.225503 0.179103
v -0.315058 1.219121 -0.349360
v 0.201870 1.231137 -0.492177
v 0.336689 -0.003223 0.816830
v 0.336689 -0.003223 0.816830
v 0.336689 -0.003223 0.816830
v -0.387339 -0.003223 0.858468
v -0.387339 -0.003223 0.858468
v -0.387339 -0.003223 0.858468
v 1.144372 0.032765 0.019542
v 1.144372 0.032765 0.019542
v 1.144372 0.032765 0.019542
v 0.955295 -0.003223 0.533544
v 0.955295 -0.003223 0.533544
v 0.955295 -0.003223 0.533544
v -0.937006 -0.000730 0.442804
v -0.937006 -0.000730 0.442804
v -0.937006 -0.000730 0.442804
v -1.133684 -0.006828 -0.006944
v -1.133684 -0.006828 -0.006944
v -1.133684 -0.006828 -0.006944
v -0.882971 -0.005866 -0.502315
v -0.882971 -0.005866 -0.502315
v -0.882971 -0.005866 -0.502315
v -0.387339 -0.003223 -0.842830
v -0.387339 -0.003223 -0.842830
v -0.387339 -0.003223 -0.842830
v 0.336689 -0.003223 -0.801193
v 0.336689 -0.003223 -0.801193
v 0.336689 -0.003223 -0.801193
v 0.955295 -0.003223 -0.517907
v 0.955295 -0.003223 -0.517907
v 0.955295 -0.003223 -0.517907
v 1.291097 0.439632 0.336100
v 1.291097 0.439632 0.336100
v 1.291097 0.439632 0.336100
v 1.291097 0.439632 0.336100
v 1.291097 0.439632 0.336100
v 1.291097 0.439632 -0.281926
v 1.291097 0.439632 -0.281926
v 1.291097 0.439632 -0.281926
v 1.291097 0.439632 -0.281926
v 1.291097 0.439632 -0.281926
v 1.229932 0.915763 0.036506
v 1.229932 0.915763 0.036506
v 1.229932 0.915763 0.036506
v 1.229932 0.915763 0.036506
v -0.016249 0.380483 1.007819
v -0.016249 0.380483 1.007819
v -0.016249 0.380483 1.007819
v -0.016249 0.380483 1.007819
v -0.016249 0.380483 1.007819
v 0.772935 0.380483 0.816835
v 0.772935 0.380483 0.816835
v 0.772935 0.380483 0.816835
v 0.772935 0.380483 0.816835
v 0.772935 0.380483 0.816835
v 0.354840 0.827702 0.858468
v 0.354840 0.827702 0.858468
v 0.354840 0.827702 0.858468
v 0.354840 0.827702 0.858468
v -1.054344 0.374197 0.172885
v -1.054344 0.374197 0.172885
v -1.054344 0.374197 0.172885
v -1.054344 0.374197 0.172885
v -1.054344 0.374197 0.172885
v -0.800190 0.384526 0.711401
v -0.800190 0.384526 0.711401
v -0.800190 0.384526 0.711401
v -0.800190 0.384526 0.711401
v -0.800190 0.384526 0.711401
v -0.707713 0.821907 0.326459
v -0.707713 0.821907 0.326459
v -0.707713 0.821907 0.326459
v -0.707713 0.821907 0.326459
v -0.634997 0.372848 -0.831357
v -0.634997 0.372848 -0.831357
v -0.634997 0.372848 -0.831357
v -0.634997 0.372848 -0.831357
v -0.634997 0.372848 -0.831357
v -0.996384 0.367852 -0.364828
v -0.996384 0.367852 -0.364828
v -0.996384 0.367852 -0.364828
v -0.996384 0.367852 -0.364828
v -0.996384 0.367852 -0.364828
v -0.616532 0.811256 -0.583595
v -0.616532 0.811256 -0.583595
v -0.616532 0.811256 -0.583595
v -0.616532 0.811256 -0.583595
v 0.772935 0.380483 -0.801198
v 0.772935 0.380483 -0.801198
v 0.772935 0.380483 -0.801198
v 0.772935 0.380483 -0.801198
v 0.772935 0.380483 -0.801198
v -0.016249 0.380483 -0.992181
v -0.016249 0.380483 -0.992181
v -0.016249 0.380483 -0.992181
v -0.016249 0.380483 -0.992181
v -0.016249 0.380483 -0.992181
v 0.354840 0.827702 -0.842830
v 0.354840 0.827702 -0.842830
v 0.354840 0.827702 -0.842830
v 0.354840 0.827702 -0.842830
v 0.937199 0.963501 0.526475
v 0.937199 0.963501 0.526475
v 0.937199 0.963501 0.526475
v 0.937199 0.963501 0.526475
v 0.937199 0.963501 0.526475
v -0.364750 0.909641 0.727615
v -0.364750 0.909641 0.727615
v -0.364750 0.909641 0.727615
v -0.364750 0.909641 0.727615
v -0.364750 0.909641 0.727615
v -0.729539 0.891673 -0.172753
v -0.729539 0.891673 -0.172753
v -0.729539 0.891673 -0.172753
v -0.729539 0.891673 -0.172753
v -0.729539 0.891673 -0.172753
v -0.290596 0.902594 -0.815103
v -0.290596 0.902594 -0.815103
v -0.290596 0.902594 -0.815103
v -0.290596 0.902594 -0.815103
v -0.290596 0.902594 -0.815103
v 0.937199 0.963501 -0.473518
v 0.937199 0.963501 -0.473518
v 0.937199 0.963501 -0.473518
v 0.937199 0.963501 -0.473518
v 0.937199 0.963501 -0.473518
v 0.201870 1.231137 0.507814
v 0.201870 1.231137 0.507814
v 0.201870 1.231137 0.507814
v 0.201870 1.231137 0.507814
v 0.201870 1.231137 0.507814
v 0.716842 1.284076 0.025065
v 0.716842 1.284076 0.025065
v 0.716842 1.284076 0.025065
v 0.716842 1.284076 0.025065
v 0.716842 1.284076 0.025065
v -0.016249 1.380483 0.007819
v -0.016249 1.380483 0.007819
v -0.016249 1.380483 0.007819
v -0.016249 1.380483 0.007819
v -0.366057 1.225503 0.179103
v -0.366057 1.225503 0.179103
v -0.366057 1.225503 0.179103
v -0.366057 1.225503 0.179103
v -0.366057 1.225503 0.179103
v -0.315058 1.219121 -0.349360
v -0.315058 1.219121 -0.349360
v -0.315058 1.219121 -0.349360
v -0.315058 1.219121 -0.349360
v -0.315058 1.219121 -0.349360
v 0.201870 1.231137 -0.492177
v 0.201870 1.231137 -0.492177
v 0.201870 1.231137 -0.492177
v 0.201870 1.231137 -0.492177
v 0.201870 1.231137 -0.492177
vt 0.983676 0.801395
vt 1.000000 0.918208
vt 0.887995 0.905466
vt 1.000000 0.484578
vt 0.983608 0.634992
vt 0.896818 0.541680
vt 0.000000 0.858595
vt 0.003984 0.736010
vt 0.087065 0.809485
vt 0.715629 0.317049
vt 0.699085 0.454916
vt 0.629587 0.374159
vt 0.704124 0.000000
vt 0.715629 0.140045
vt 0.630224 0.027571
vt 0.887223 0.727901
vt 0.022085 0.595844
vt 0.123055 0.532757
vt 0.093343 0.661343
vt 0.095463 0.934635
vt 0.636987 0.213930
vt 0.737943 0.347108
vt 0.715629 0.227111
vt 0.853623 0.325701
vt 0.710617 0.591745
vt 0.770185 0.749411
vt 0.612993 0.660303
vt 0.201343 0.747160
vt 0.230870 0.625573
vt 0.309513 0.757613
vt 0.215271 0.959476
vt 0.222873 0.868866
vt 0.317471 0.881046
vt 0.530141 0.123523
vt 0.510232 0.283328
vt 0.422424 0.172223
vt 0.964319 0.245843
vt 0.854029 0.159803
vt 0.971878 0.099197
vt 0.648082 0.833686
vt 0.495391 0.858550
vt 0.503358 0.735588
vt 0.835168 0.000000
vt 0.732148 0.076883
vt 0.417121 0.754434
vt 0.417121 0.306537
vt 0.519216 0.375428
vt 0.469365 0.642587
vt 0.556042 0.517370
vt 0.770185 0.886596
vt 0.690384 0.484578
vt 0.770185 0.814292
vt 0.796523 0.645485
vt 0.801024 0.946716
vt 0.608080 0.484578
vt 0.017991 0.959476
vt 0.971878 0.367313
vt 0.923108 1.000000
vt 0.856497 0.403716
vt 0.417121 0.277014
vt 0.000000 0.276576
vt 0.075624 0.113969
vt 0.107522 0.532757
vt 0.026114 0.425078
vt 0.220605 0.532757
vt 0.359073 0.448013
vt 0.192517 0.000000
vt 0.323433 0.010542
vt 0.414435 0.105953
vn 0.821500 -0.503900 0.266900
vn 0.052500 -0.405900 0.912400
vn -0.916200 0.001700 0.400600
vn -0.533800 -0.327700 -0.779500
vn 0.376300 -0.427900 -0.821800
vn 0.678600 -0.199400 0.706900
vn -0.353700 -0.021900 0.935100
vn -0.962200 0.250700 -0.106700
vn -0.247700 -0.133900 -0.959500
vn 0.707100 -0.170500 -0.686200
vn 0.232500 0.686800 0.688700
vn -0.627900 0.673800 0.389500
vn -0.667400 0.674500 -0.315600
vn 0.045100 0.665000 -0.745400
vn 0.567900 0.783300 -0.252700
vn 0.132200 0.964100 -0.230300
vn 0.321400 0.854800 -0.407500
vn 0.267500 0.687900 -0.674700
vn -0.112700 0.937500 -0.329200
vn -0.173500 0.810300 -0.559800
vn -0.540700 0.682300 -0.492100
vn -0.425700 0.903400 -0.052000
vn -0.636700 0.767800 -0.070700
vn -0.734200 0.667300 0.125400
vn -0.221000 0.903800 0.366400
vn -0.285400 0.830300 0.478800
vn -0.066300 0.640100 0.765400
vn 0.121300 0.964400 0.235100
vn 0.301700 0.857900 0.415900
vn 0.559700 0.787700 0.257600
vn 0.813200 0.392100 -0.430100
vn 0.681400 0.203200 -0.703100
vn 0.445900 0.339800 -0.828100
vn -0.003600 0.319500 -0.947600
vn -0.249100 0.191100 -0.949400
vn -0.601600 0.412100 -0.684300
vn -0.791700 0.520500 -0.319700
vn -0.871400 0.480400 -0.099600
vn -0.804300 0.582700 0.116600
vn -0.687900 0.556000 0.466500
vn -0.340900 0.254700 0.905000
vn -0.119300 0.402100 0.907800
vn 0.415600 0.308900 0.855500
vn 0.658100 0.178800 0.731400
vn 0.808500 0.384300 0.445600
vn 0.233300 0.128300 -0.963900
vn 0.227200 -0.258400 -0.938900
vn 0.052500 -0.405900 -0.912400
vn -0.741300 0.353600 -0.570500
vn -0.790400 -0.014600 -0.612400
vn -0.887300 -0.104000 -0.449300
vn -0.792600 0.488600 0.364700
vn -0.904300 0.023900 0.426300
vn -0.571800 -0.322800 0.754200
vn 0.233300 0.128300 0.963900
vn 0.227200 -0.258400 0.938900
vn 0.376300 -0.427900 0.821800
vn 0.991800 0.127400 0.000000
vn 0.940700 -0.339200 0.000000
vn 0.831100 -0.491900 -0.259400
vn 0.000000 -1.000000 0.000000
vn 0.016400 -0.999800 0.006400
vn -0.036400 -0.996200 0.079500
vn -0.038400 -0.995700 -0.083800
vn 0.005300 -1.000000 0.000000
vn -0.008300 -1.000000 0.005000
vn 0.044500 -0.999000 0.000000
s off
f 46/1/1 43/2/1 67/3/1
f 40/4/2 37/5/2 81/6/2
f 52/7/3 49/8/3 95/9/3
f 58/10/4 55/11/4 109/12/4
f 64/13/5 61/14/5 123/15/5
f 48/1/6 69/3/6 87/16/6
f 42/17/7 83/18/7 101/19/7
f 54/7/8 97/9/8 115/20/8
f 60/10/9 111/12/9 129/21/9
f 66/22/10 125/23/10 73/24/10
f 92/25/11 137/26/11 162/27/11
f 106/28/12 142/29/12 176/30/12
f 120/31/13 147/32/13 181/33/13
f 134/34/14 152/35/14 186/36/14
f 78/37/15 157/38/15 168/39/15
f 167/40/16 187/41/16 172/42/16
f 33/39/17 159/38/17 188/43/17
f 158/38/18 136/44/18 190/43/18
f 189/41/19 182/45/19 175/42/19
f 36/36/20 154/35/20 183/46/20
f 153/35/21 122/47/21 185/46/21
f 184/45/22 177/48/22 174/42/22
f 35/33/23 149/32/23 178/30/23
f 148/32/24 108/28/24 180/30/24
f 179/48/25 163/27/25 173/42/25
f 34/48/26 144/49/26 164/27/26
f 143/49/27 94/25/27 166/27/27
f 165/27/28 169/40/28 11/42/28
f 32/27/29 139/26/29 170/40/29
f 138/26/30 80/50/30 171/40/30
f 72/24/31 160/38/31 77/37/31
f 18/24/32 126/23/32 161/38/32
f 124/23/33 135/44/33 31/38/33
f 128/21/34 155/35/34 133/34/34
f 26/21/35 112/12/35 156/35/35
f 110/12/36 121/47/36 30/35/36
f 114/20/37 150/32/37 119/31/37
f 24/20/38 98/9/38 151/32/38
f 96/9/39 107/28/39 29/32/39
f 100/19/40 145/29/40 105/28/40
f 22/19/41 84/18/41 146/29/41
f 82/51/42 93/25/42 28/49/42
f 86/16/43 140/52/43 91/53/43
f 20/16/44 70/3/44 141/52/44
f 68/3/45 79/54/45 27/52/45
f 127/15/46 130/21/46 9/34/46
f 25/15/47 63/14/47 131/21/47
f 62/14/48 59/10/48 132/21/48
f 113/12/49 116/55/49 8/47/49
f 23/12/50 57/11/50 117/55/50
f 56/56/51 53/7/51 118/20/51
f 99/9/52 102/19/52 7/28/52
f 21/9/53 51/8/53 103/19/53
f 50/8/54 41/17/54 104/19/54
f 85/6/55 88/16/55 6/53/55
f 19/6/56 39/5/56 89/16/56
f 38/5/57 47/1/57 90/16/57
f 71/57/58 74/24/58 10/37/58
f 17/3/59 45/2/59 75/58/59
f 44/59/60 65/22/60 76/24/60
f 12/60/61 4/61/61 16/62/61
f 3/63/62 15/64/62 14/65/62
f 4/61/61 12/60/61 2/66/61
f 5/67/63 13/68/63 16/62/63
f 1/69/64 12/60/64 13/68/64
f 2/66/65 15/64/65 4/61/65
f 15/64/66 2/66/66 14/65/66
f 13/68/67 12/60/67 16/62/67
