# Blender v2.76 (sub 0) OBJ File: 'table.blend'
# www.blender.org
o Cube.001_Cube.000
v 0.206802 1.140000 -1.890000
v 0.393198 1.140000 -1.890000
v 0.206802 1.100000 -1.890000
v 0.393198 1.100000 -1.890000
v 0.206802 1.140000 1.890000
v 0.393198 1.140000 1.890000
v 0.206802 1.100000 1.890000
v 0.393198 1.100000 1.890000
v 0.406802 1.140000 -1.890000
v 0.593198 1.140000 -1.890000
v 0.406802 1.100000 -1.890000
v 0.593198 1.100000 -1.890000
v 0.406802 1.140000 1.890000
v 0.593198 1.140000 1.890000
v 0.406802 1.100000 1.890000
v 0.593198 1.100000 1.890000
v 0.606802 1.140000 -1.890000
v 0.793198 1.140000 -1.890000
v 0.606802 1.100000 -1.890000
v 0.793198 1.100000 -1.890000
v 0.606802 1.140000 1.890000
v 0.793198 1.140000 1.890000
v 0.606802 1.100000 1.890000
v 0.793198 1.100000 1.890000
v -0.393198 1.140000 -1.890000
v -0.206802 1.140000 -1.890000
v -0.393198 1.100000 -1.890000
v -0.206802 1.100000 -1.890000
v -0.393198 1.140000 1.890000
v -0.206802 1.140000 1.890000
v -0.393198 1.100000 1.890000
v -0.206802 1.100000 1.890000
v -0.193198 1.140000 -1.890000
v -0.006802 1.140000 -1.890000
v -0.193198 1.100000 -1.890000
v -0.006802 1.100000 -1.890000
v -0.193198 1.140000 1.890000
v -0.006802 1.140000 1.890000
v -0.193198 1.100000 1.890000
v -0.006802 1.100000 1.890000
v 0.006802 1.140000 -1.890000
v 0.193198 1.140000 -1.890000
v 0.006802 1.100000 -1.890000
v 0.193198 1.100000 -1.890000
v 0.006802 1.140000 1.890000
v 0.193198 1.140000 1.890000
v 0.006802 1.100000 1.890000
v 0.193198 1.100000 1.890000
v -0.793198 1.140000 -1.890000
v -0.606802 1.140000 -1.890000
v -0.793198 1.100000 -1.890000
v -0.606802 1.100000 -1.890000
v -0.793198 1.140000 1.890000
v -0.606802 1.140000 1.890000
v -0.793198 1.100000 1.890000
v -0.606802 1.100000 1.890000
v -0.593197 1.140000 -1.890000
v -0.406802 1.140000 -1.890000
v -0.593197 1.100000 -1.890000
v -0.406802 1.100000 -1.890000
v -0.593197 1.140000 1.890000
v -0.406802 1.140000 1.890000
v -0.593197 1.100000 1.890000
v -0.406802 1.100000 1.890000
v -0.703198 1.100000 -1.471500
v 0.703198 1.100000 -1.471500
v -0.703198 1.060000 -1.471500
v 0.703198 1.060000 -1.471500
v -0.703198 1.100000 -1.338500
v 0.703198 1.100000 -1.338500
v -0.703198 1.060000 -1.338500
v 0.703198 1.060000 -1.338500
v -0.703198 1.100000 -0.066500
v 0.703198 1.100000 -0.066500
v -0.703198 1.060000 -0.066500
v 0.703198 1.060000 -0.066500
v -0.703198 1.100000 0.066500
v 0.703198 1.100000 0.066500
v -0.703198 1.060000 0.066500
v 0.703198 1.060000 0.066500
v -0.703198 1.100000 1.338500
v 0.703198 1.100000 1.338500
v -0.703198 1.060000 1.338500
v 0.703198 1.060000 1.338500
v -0.703198 1.100000 1.471500
v 0.703198 1.100000 1.471500
v -0.703198 1.060000 1.471500
v 0.703198 1.060000 1.471500
v -0.175799 1.060000 -1.438250
v 0.175800 1.060000 -1.438250
v -0.175799 0.050000 -1.438250
v 0.175800 0.050000 -1.438250
v -0.175799 1.060000 -1.371750
v 0.175800 1.060000 -1.371750
v -0.175799 0.050000 -1.371750
v 0.175800 0.050000 -1.371750
v -0.703198 0.000000 -1.471500
v 0.703198 0.000000 -1.471500
v -0.703198 0.000000 -1.338500
v 0.703198 0.000000 -1.338500
v -0.703198 0.050000 -1.471500
v 0.703198 0.050000 -1.471500
v -0.703198 0.050000 -1.338500
v 0.703198 0.050000 -1.338500
v -0.175799 1.060000 1.371750
v 0.175800 1.060000 1.371750
v -0.175799 0.050000 1.371750
v 0.175800 0.050000 1.371750
v -0.175799 1.060000 1.438250
v 0.175800 1.060000 1.438250
v -0.175799 0.050000 1.438250
v 0.175800 0.050000 1.438250
v -0.703198 0.000000 1.338500
v 0.703198 0.000000 1.338500
v -0.703198 0.000000 1.471500
v 0.703198 0.000000 1.471500
v -0.703198 0.050000 1.338500
v 0.703198 0.050000 1.338500
v -0.703198 0.050000 1.471500
v 0.703198 0.050000 1.471500
v -0.035160 0.870750 -1.378250
v 0.035160 0.870750 -1.378250
v -0.035160 0.719250 -1.378250
v 0.035160 0.719250 -1.378250
v -0.035160 0.870750 1.378250
v 0.035160 0.870750 1.378250
v -0.035160 0.719250 1.378250
v 0.035160 0.719250 1.378250
v -0.035160 0.420750 -1.378250
v 0.035160 0.420750 -1.378250
v -0.035160 0.269250 -1.378250
v 0.035160 0.269250 -1.378250
v -0.035160 0.420750 1.378250
v 0.035160 0.420750 1.378250
v -0.035160 0.269250 1.378250
v 0.035160 0.269250 1.378250
v 0.206802 1.140000 -1.890000
v 0.206802 1.140000 -1.890000
v 0.393198 1.140000 -1.890000
v 0.206802 1.140000 1.890000
v 0.206802 1.140000 1.890000
v 0.393198 1.140000 1.890000
v 0.406802 1.140000 -1.890000
v 0.406802 1.140000 -1.890000
v 0.593198 1.140000 -1.890000
v 0.406802 1.140000 1.890000
v 0.406802 1.140000 1.890000
v 0.593198 1.140000 1.890000
v 0.606802 1.140000 -1.890000
v 0.606802 1.140000 -1.890000
v 0.793198 1.140000 -1.890000
v 0.606802 1.140000 1.890000
v 0.606802 1.140000 1.890000
v 0.793198 1.140000 1.890000
v -0.393198 1.140000 -1.890000
v -0.393198 1.140000 -1.890000
v -0.206802 1.140000 -1.890000
v -0.393198 1.140000 1.890000
v -0.393198 1.140000 1.890000
v -0.206802 1.140000 1.890000
v -0.193198 1.140000 -1.890000
v -0.193198 1.140000 -1.890000
v -0.006802 1.140000 -1.890000
v -0.193198 1.140000 1.890000
v -0.193198 1.140000 1.890000
v -0.006802 1.140000 1.890000
v 0.006802 1.140000 -1.890000
v 0.006802 1.140000 -1.890000
v 0.193198 1.140000 -1.890000
v 0.006802 1.140000 1.890000
v 0.006802 1.140000 1.890000
v 0.193198 1.140000 1.890000
v -0.793198 1.140000 -1.890000
v -0.793198 1.140000 -1.890000
v -0.606802 1.140000 -1.890000
v -0.793198 1.140000 1.890000
v -0.793198 1.140000 1.890000
v -0.606802 1.140000 1.890000
v -0.593197 1.140000 -1.890000
v -0.593197 1.140000 -1.890000
v -0.406802 1.140000 -1.890000
v -0.593197 1.140000 1.890000
v -0.593197 1.140000 1.890000
v -0.406802 1.140000 1.890000
v -0.703198 1.100000 -1.471500
v -0.703198 1.100000 -1.471500
v 0.703198 1.100000 -1.471500
v 0.703198 1.100000 -1.471500
v -0.703198 1.100000 -1.338500
v 0.703198 1.100000 -1.338500
v -0.703198 1.100000 -0.066500
v -0.703198 1.100000 -0.066500
v 0.703198 1.100000 -0.066500
v 0.703198 1.100000 -0.066500
v -0.703198 1.100000 0.066500
v 0.703198 1.100000 0.066500
v -0.703198 1.100000 1.338500
v -0.703198 1.100000 1.338500
v 0.703198 1.100000 1.338500
v 0.703198 1.100000 1.338500
v -0.703198 1.100000 1.471500
v 0.703198 1.100000 1.471500
v -0.175799 1.060000 -1.438250
v -0.175799 0.050000 -1.438250
v -0.703198 0.050000 -1.471500
v -0.703198 0.050000 -1.471500
v 0.703198 0.050000 -1.471500
v 0.703198 0.050000 -1.471500
v -0.703198 0.050000 -1.338500
v 0.703198 0.050000 -1.338500
v -0.175799 0.050000 1.438250
v -0.175799 1.060000 1.438250
v -0.703198 0.050000 1.338500
v -0.703198 0.050000 1.338500
v 0.703198 0.050000 1.338500
v 0.703198 0.050000 1.338500
v -0.703198 0.050000 1.471500
v 0.703198 0.050000 1.471500
v -0.035160 0.870750 -1.378250
v -0.035160 0.870750 1.378250
v -0.035160 0.420750 -1.378250
v -0.035160 0.420750 1.378250
vt 0.246539 0.751000
vn 0.577300 -0.577300 0.577300
vn -0.577300 -0.577300 0.577300
vn -0.577300 -0.577300 -0.577300
vn 0.000000 1.000000 0.000000
vn 0.707100 0.707100 0.000000
vn -1.000000 0.000000 0.000000
vn 0.000000 0.000000 1.000000
vn 0.577300 -0.577300 -0.577300
vn 0.000000 0.000000 -1.000000
vn 0.000000 0.707100 0.707100
vn 1.000000 0.000000 0.000000
vn -0.707100 0.000000 0.707100
vn 0.707100 0.000000 0.707100
vn 0.707100 0.000000 -0.707100
vn -0.707100 0.000000 -0.707100
vn -0.707100 -0.707100 0.000000
vn 0.707100 -0.707100 0.000000
s 1
f 8/1/1 7/1/2 3/1/3
f 137/1/4 140/1/4 142/1/5
f 3/1/3 7/1/2 141/1/6
f 7/1/2 8/1/1 6/1/7
f 8/1/1 4/1/8 139/1/5
f 4/1/8 3/1/3 1/1/9
f 16/1/1 15/1/2 11/1/3
f 143/1/4 146/1/4 148/1/5
f 11/1/3 15/1/2 147/1/6
f 15/1/2 16/1/1 14/1/7
f 16/1/1 12/1/8 145/1/5
f 12/1/8 11/1/3 9/1/9
f 24/1/1 23/1/2 19/1/3
f 149/1/4 152/1/4 154/1/5
f 19/1/3 23/1/2 153/1/6
f 23/1/2 24/1/1 22/1/7
f 24/1/1 20/1/8 151/1/5
f 20/1/8 19/1/3 17/1/9
f 32/1/1 31/1/2 27/1/3
f 155/1/4 158/1/4 160/1/5
f 27/1/3 31/1/2 159/1/6
f 31/1/2 32/1/1 30/1/7
f 32/1/1 28/1/8 157/1/5
f 28/1/8 27/1/3 25/1/9
f 40/1/1 39/1/2 35/1/3
f 161/1/4 164/1/4 166/1/5
f 35/1/3 39/1/2 165/1/6
f 39/1/2 40/1/1 38/1/7
f 40/1/1 36/1/8 163/1/5
f 36/1/8 35/1/3 33/1/9
f 48/1/1 47/1/2 43/1/3
f 167/1/4 170/1/4 172/1/5
f 43/1/3 47/1/2 171/1/6
f 47/1/2 48/1/1 46/1/7
f 48/1/1 44/1/8 169/1/5
f 44/1/8 43/1/3 41/1/9
f 56/1/1 55/1/2 51/1/3
f 173/1/4 176/1/4 178/1/5
f 51/1/3 55/1/2 177/1/6
f 55/1/2 56/1/1 54/1/7
f 56/1/1 52/1/8 175/1/5
f 52/1/8 51/1/3 49/1/9
f 64/1/1 63/1/2 59/1/3
f 179/1/4 182/1/4 184/1/5
f 59/1/3 63/1/2 183/1/6
f 63/1/2 64/1/1 62/1/7
f 64/1/1 60/1/8 181/1/5
f 60/1/8 59/1/3 57/1/9
f 72/1/1 71/1/2 67/1/3
f 185/1/4 189/1/10 190/1/10
f 67/1/3 71/1/2 69/1/6
f 71/1/2 72/1/1 190/1/10
f 72/1/1 68/1/8 188/1/11
f 68/1/8 67/1/3 65/1/9
f 80/1/1 79/1/2 75/1/3
f 191/1/4 195/1/10 196/1/10
f 75/1/3 79/1/2 77/1/6
f 79/1/2 80/1/1 196/1/10
f 80/1/1 76/1/8 194/1/11
f 76/1/8 75/1/3 73/1/9
f 88/1/1 87/1/2 83/1/3
f 197/1/4 201/1/10 202/1/10
f 83/1/3 87/1/2 85/1/6
f 87/1/2 88/1/1 202/1/10
f 88/1/1 84/1/8 200/1/11
f 84/1/8 83/1/3 81/1/9
f 91/1/6 95/1/12 93/1/12
f 95/1/12 96/1/13 94/1/13
f 96/1/13 92/1/14 90/1/14
f 92/1/14 204/1/9 203/1/9
f 100/1/1 99/1/2 97/1/3
f 205/1/4 209/1/10 210/1/10
f 208/1/11 104/1/11 100/1/1
f 210/1/10 209/1/10 99/1/2
f 103/1/6 206/1/6 97/1/3
f 101/1/9 102/1/9 98/1/8
f 107/1/15 111/1/6 109/1/6
f 211/1/7 112/1/13 110/1/13
f 112/1/13 108/1/14 106/1/14
f 108/1/14 107/1/15 105/1/15
f 116/1/1 115/1/2 113/1/3
f 213/1/4 217/1/10 218/1/10
f 216/1/11 120/1/11 116/1/1
f 218/1/10 217/1/10 115/1/2
f 119/1/6 214/1/6 113/1/3
f 117/1/9 118/1/9 114/1/8
f 123/1/16 127/1/16 125/1/6
f 128/1/17 124/1/17 122/1/5
f 128/1/17 127/1/16 123/1/16
f 219/1/4 220/1/4 126/1/5
f 131/1/16 135/1/16 133/1/6
f 136/1/17 132/1/17 130/1/5
f 136/1/17 135/1/16 131/1/16
f 221/1/4 222/1/4 134/1/5
f 4/1/8 8/1/1 3/1/3
f 139/1/5 137/1/4 142/1/5
f 138/1/6 3/1/3 141/1/6
f 5/1/7 7/1/2 6/1/7
f 142/1/5 8/1/1 139/1/5
f 2/1/9 4/1/8 1/1/9
f 12/1/8 16/1/1 11/1/3
f 145/1/5 143/1/4 148/1/5
f 144/1/6 11/1/3 147/1/6
f 13/1/7 15/1/2 14/1/7
f 148/1/5 16/1/1 145/1/5
f 10/1/9 12/1/8 9/1/9
f 20/1/8 24/1/1 19/1/3
f 151/1/5 149/1/4 154/1/5
f 150/1/6 19/1/3 153/1/6
f 21/1/7 23/1/2 22/1/7
f 154/1/5 24/1/1 151/1/5
f 18/1/9 20/1/8 17/1/9
f 28/1/8 32/1/1 27/1/3
f 157/1/5 155/1/4 160/1/5
f 156/1/6 27/1/3 159/1/6
f 29/1/7 31/1/2 30/1/7
f 160/1/5 32/1/1 157/1/5
f 26/1/9 28/1/8 25/1/9
f 36/1/8 40/1/1 35/1/3
f 163/1/5 161/1/4 166/1/5
f 162/1/6 35/1/3 165/1/6
f 37/1/7 39/1/2 38/1/7
f 166/1/5 40/1/1 163/1/5
f 34/1/9 36/1/8 33/1/9
f 44/1/8 48/1/1 43/1/3
f 169/1/5 167/1/4 172/1/5
f 168/1/6 43/1/3 171/1/6
f 45/1/7 47/1/2 46/1/7
f 172/1/5 48/1/1 169/1/5
f 42/1/9 44/1/8 41/1/9
f 52/1/8 56/1/1 51/1/3
f 175/1/5 173/1/4 178/1/5
f 174/1/6 51/1/3 177/1/6
f 53/1/7 55/1/2 54/1/7
f 178/1/5 56/1/1 175/1/5
f 50/1/9 52/1/8 49/1/9
f 60/1/8 64/1/1 59/1/3
f 181/1/5 179/1/4 184/1/5
f 180/1/6 59/1/3 183/1/6
f 61/1/7 63/1/2 62/1/7
f 184/1/5 64/1/1 181/1/5
f 58/1/9 60/1/8 57/1/9
f 68/1/8 72/1/1 67/1/3
f 187/1/4 185/1/4 190/1/10
f 186/1/6 67/1/3 69/1/6
f 189/1/10 71/1/2 190/1/10
f 70/1/11 72/1/1 188/1/11
f 66/1/9 68/1/8 65/1/9
f 76/1/8 80/1/1 75/1/3
f 193/1/4 191/1/4 196/1/10
f 192/1/6 75/1/3 77/1/6
f 195/1/10 79/1/2 196/1/10
f 78/1/11 80/1/1 194/1/11
f 74/1/9 76/1/8 73/1/9
f 84/1/8 88/1/1 83/1/3
f 199/1/4 197/1/4 202/1/10
f 198/1/6 83/1/3 85/1/6
f 201/1/10 87/1/2 202/1/10
f 86/1/11 88/1/1 200/1/11
f 82/1/9 84/1/8 81/1/9
f 89/1/6 91/1/6 93/1/12
f 93/1/12 95/1/12 94/1/13
f 94/1/13 96/1/13 90/1/14
f 90/1/14 92/1/14 203/1/9
f 98/1/8 100/1/1 97/1/3
f 207/1/4 205/1/4 210/1/10
f 98/1/8 208/1/11 100/1/1
f 100/1/1 210/1/10 99/1/2
f 99/1/2 103/1/6 97/1/3
f 97/1/3 101/1/9 98/1/8
f 105/1/15 107/1/15 109/1/6
f 212/1/7 211/1/7 110/1/13
f 110/1/13 112/1/13 106/1/14
f 106/1/14 108/1/14 105/1/15
f 114/1/8 116/1/1 113/1/3
f 215/1/4 213/1/4 218/1/10
f 114/1/8 216/1/11 116/1/1
f 116/1/1 218/1/10 115/1/2
f 115/1/2 119/1/6 113/1/3
f 113/1/3 117/1/9 114/1/8
f 121/1/6 123/1/16 125/1/6
f 126/1/5 128/1/17 122/1/5
f 124/1/17 128/1/17 123/1/16
f 122/1/5 219/1/4 126/1/5
f 129/1/6 131/1/16 133/1/6
f 134/1/5 136/1/17 130/1/5
f 132/1/17 136/1/17 131/1/16
f 130/1/5 221/1/4 134/1/5
